<mxfile host="app.diagrams.net" modified="2023-05-15T12:41:31.425Z" agent="Mozilla/5.0 (Windows NT 10.0; Win64; x64) AppleWebKit/537.36 (KHTML, like Gecko) Chrome/113.0.0.0 Safari/537.36" etag="GpG_5-reOlgXdqcilBe1" version="21.3.0" type="device">
  <diagram id="C5RBs43oDa-KdzZeNtuy" name="Page-1">
    <mxGraphModel dx="2049" dy="732" grid="1" gridSize="10" guides="1" tooltips="1" connect="1" arrows="1" fold="1" page="1" pageScale="1" pageWidth="827" pageHeight="1169" math="0" shadow="0">
      <root>
        <mxCell id="WIyWlLk6GJQsqaUBKTNV-0" />
        <mxCell id="WIyWlLk6GJQsqaUBKTNV-1" parent="WIyWlLk6GJQsqaUBKTNV-0" />
        <mxCell id="35" value="Beer Sheva 6: Site" style="swimlane;fontStyle=0;align=center;verticalAlign=top;childLayout=stackLayout;horizontal=1;startSize=26;horizontalStack=0;resizeParent=1;resizeLast=0;collapsible=1;marginBottom=0;rounded=0;shadow=0;strokeWidth=1;" parent="WIyWlLk6GJQsqaUBKTNV-1" vertex="1">
          <mxGeometry x="289.5" y="107" width="160" height="146" as="geometry">
            <mxRectangle x="130" y="380" width="160" height="26" as="alternateBounds" />
          </mxGeometry>
        </mxCell>
        <mxCell id="36" value="address: Beer Sheva 6" style="text;align=left;verticalAlign=top;spacingLeft=4;spacingRight=4;overflow=hidden;rotatable=0;points=[[0,0.5],[1,0.5]];portConstraint=eastwest;" parent="35" vertex="1">
          <mxGeometry y="26" width="160" height="24" as="geometry" />
        </mxCell>
        <mxCell id="37" value="phoneNumber: 0521111111" style="text;align=left;verticalAlign=top;spacingLeft=4;spacingRight=4;overflow=hidden;rotatable=0;points=[[0,0.5],[1,0.5]];portConstraint=eastwest;" parent="35" vertex="1">
          <mxGeometry y="50" width="160" height="24" as="geometry" />
        </mxCell>
        <mxCell id="38" value="contactName: Asaf Lotz" style="text;align=left;verticalAlign=top;spacingLeft=4;spacingRight=4;overflow=hidden;rotatable=0;points=[[0,0.5],[1,0.5]];portConstraint=eastwest;" parent="35" vertex="1">
          <mxGeometry y="74" width="160" height="24" as="geometry" />
        </mxCell>
        <mxCell id="39" value="region: CENTER" style="text;align=left;verticalAlign=top;spacingLeft=4;spacingRight=4;overflow=hidden;rotatable=0;points=[[0,0.5],[1,0.5]];portConstraint=eastwest;" parent="35" vertex="1">
          <mxGeometry y="98" width="160" height="24" as="geometry" />
        </mxCell>
        <mxCell id="40" value="type: SUPPLIER" style="text;align=left;verticalAlign=top;spacingLeft=4;spacingRight=4;overflow=hidden;rotatable=0;points=[[0,0.5],[1,0.5]];portConstraint=eastwest;" parent="35" vertex="1">
          <mxGeometry y="122" width="160" height="24" as="geometry" />
        </mxCell>
        <mxCell id="41" value="Tel Aviv 3: Site" style="swimlane;fontStyle=0;align=center;verticalAlign=top;childLayout=stackLayout;horizontal=1;startSize=26;horizontalStack=0;resizeParent=1;resizeLast=0;collapsible=1;marginBottom=0;rounded=0;shadow=0;strokeWidth=1;" parent="WIyWlLk6GJQsqaUBKTNV-1" vertex="1">
          <mxGeometry x="639.5" y="105" width="160" height="150" as="geometry">
            <mxRectangle x="130" y="380" width="160" height="26" as="alternateBounds" />
          </mxGeometry>
        </mxCell>
        <mxCell id="42" value="address: Tel Aviv 3" style="text;align=left;verticalAlign=top;spacingLeft=4;spacingRight=4;overflow=hidden;rotatable=0;points=[[0,0.5],[1,0.5]];portConstraint=eastwest;" parent="41" vertex="1">
          <mxGeometry y="26" width="160" height="24" as="geometry" />
        </mxCell>
        <mxCell id="43" value="phoneNumber: 0525381648" style="text;align=left;verticalAlign=top;spacingLeft=4;spacingRight=4;overflow=hidden;rotatable=0;points=[[0,0.5],[1,0.5]];portConstraint=eastwest;" parent="41" vertex="1">
          <mxGeometry y="50" width="160" height="24" as="geometry" />
        </mxCell>
        <mxCell id="44" value="contactName: Anna Zak" style="text;align=left;verticalAlign=top;spacingLeft=4;spacingRight=4;overflow=hidden;rotatable=0;points=[[0,0.5],[1,0.5]];portConstraint=eastwest;" parent="41" vertex="1">
          <mxGeometry y="74" width="160" height="24" as="geometry" />
        </mxCell>
        <mxCell id="45" value="region: CENTER" style="text;align=left;verticalAlign=top;spacingLeft=4;spacingRight=4;overflow=hidden;rotatable=0;points=[[0,0.5],[1,0.5]];portConstraint=eastwest;" parent="41" vertex="1">
          <mxGeometry y="98" width="160" height="24" as="geometry" />
        </mxCell>
        <mxCell id="46" value="type: STORE" style="text;align=left;verticalAlign=top;spacingLeft=4;spacingRight=4;overflow=hidden;rotatable=0;points=[[0,0.5],[1,0.5]];portConstraint=eastwest;" parent="41" vertex="1">
          <mxGeometry y="122" width="160" height="24" as="geometry" />
        </mxCell>
        <mxCell id="165" value="breaks into" style="edgeStyle=orthogonalEdgeStyle;rounded=0;orthogonalLoop=1;jettySize=auto;html=1;entryX=0;entryY=0.5;entryDx=0;entryDy=0;endArrow=diamondThin;endFill=0;startArrow=diamondThin;startFill=0;" parent="WIyWlLk6GJQsqaUBKTNV-1" target="110" edge="1">
          <mxGeometry relative="1" as="geometry">
            <mxPoint x="170" y="570" as="sourcePoint" />
          </mxGeometry>
        </mxCell>
        <mxCell id="166" value="breaks into" style="edgeStyle=orthogonalEdgeStyle;rounded=0;orthogonalLoop=1;jettySize=auto;html=1;exitX=0.5;exitY=1;exitDx=0;exitDy=0;entryX=0.168;entryY=1.014;entryDx=0;entryDy=0;entryPerimeter=0;endArrow=none;endFill=0;startArrow=diamondThin;startFill=0;" parent="WIyWlLk6GJQsqaUBKTNV-1" source="47" target="99" edge="1">
          <mxGeometry relative="1" as="geometry">
            <Array as="points">
              <mxPoint x="130" y="720" />
              <mxPoint x="443" y="720" />
              <mxPoint x="443" y="690" />
            </Array>
            <mxPoint x="130" y="620" as="sourcePoint" />
          </mxGeometry>
        </mxCell>
        <mxCell id="47" value="2:DeliveryOrder" style="swimlane;fontStyle=0;align=center;verticalAlign=top;childLayout=stackLayout;horizontal=1;startSize=26;horizontalStack=0;resizeParent=1;resizeLast=0;collapsible=1;marginBottom=0;rounded=0;shadow=0;strokeWidth=1;" parent="WIyWlLk6GJQsqaUBKTNV-1" vertex="1">
          <mxGeometry x="22.75" y="390" width="214.5" height="180" as="geometry">
            <mxRectangle x="130" y="380" width="160" height="26" as="alternateBounds" />
          </mxGeometry>
        </mxCell>
        <mxCell id="48" value="id: 2" style="text;align=left;verticalAlign=top;spacingLeft=4;spacingRight=4;overflow=hidden;rotatable=0;points=[[0,0.5],[1,0.5]];portConstraint=eastwest;" parent="47" vertex="1">
          <mxGeometry y="26" width="214.5" height="24" as="geometry" />
        </mxCell>
        <mxCell id="53" value="destination: Tel Aviv 3" style="text;align=left;verticalAlign=top;spacingLeft=4;spacingRight=4;overflow=hidden;rotatable=0;points=[[0,0.5],[1,0.5]];portConstraint=eastwest;" parent="47" vertex="1">
          <mxGeometry y="50" width="214.5" height="24" as="geometry" />
        </mxCell>
        <mxCell id="54" value="source: Beer Sheva 6Â " style="text;align=left;verticalAlign=top;spacingLeft=4;spacingRight=4;overflow=hidden;rotatable=0;points=[[0,0.5],[1,0.5]];portConstraint=eastwest;" parent="47" vertex="1">
          <mxGeometry y="74" width="214.5" height="24" as="geometry" />
        </mxCell>
        <mxCell id="51" value="totalLoadWeight: 55" style="text;align=left;verticalAlign=top;spacingLeft=4;spacingRight=4;overflow=hidden;rotatable=0;points=[[0,0.5],[1,0.5]];portConstraint=eastwest;" parent="47" vertex="1">
          <mxGeometry y="98" width="214.5" height="24" as="geometry" />
        </mxCell>
        <mxCell id="55" value="items: [1,2]" style="text;align=left;verticalAlign=top;spacingLeft=4;spacingRight=4;overflow=hidden;rotatable=0;points=[[0,0.5],[1,0.5]];portConstraint=eastwest;" parent="47" vertex="1">
          <mxGeometry y="122" width="214.5" height="24" as="geometry" />
        </mxCell>
        <mxCell id="56" value="status: COMPLETED" style="text;align=left;verticalAlign=top;spacingLeft=4;spacingRight=4;overflow=hidden;rotatable=0;points=[[0,0.5],[1,0.5]];portConstraint=eastwest;" parent="47" vertex="1">
          <mxGeometry y="146" width="214.5" height="24" as="geometry" />
        </mxCell>
        <mxCell id="169" value="stops at" style="edgeStyle=orthogonalEdgeStyle;rounded=0;orthogonalLoop=1;jettySize=auto;html=1;entryX=0.5;entryY=0;entryDx=0;entryDy=0;endArrow=none;endFill=0;startArrow=diamondThin;startFill=0;" parent="WIyWlLk6GJQsqaUBKTNV-1" source="57" target="82" edge="1">
          <mxGeometry relative="1" as="geometry" />
        </mxCell>
        <mxCell id="178" value="stops at" style="edgeStyle=orthogonalEdgeStyle;rounded=0;orthogonalLoop=1;jettySize=auto;html=1;endArrow=none;endFill=0;exitX=0.184;exitY=1.011;exitDx=0;exitDy=0;exitPerimeter=0;entryX=0.75;entryY=0;entryDx=0;entryDy=0;startArrow=diamondThin;startFill=0;" parent="WIyWlLk6GJQsqaUBKTNV-1" source="67" target="172" edge="1">
          <mxGeometry relative="1" as="geometry">
            <mxPoint x="640" y="690" as="sourcePoint" />
            <Array as="points">
              <mxPoint x="642" y="730" />
              <mxPoint x="527" y="730" />
              <mxPoint x="527" y="750" />
            </Array>
          </mxGeometry>
        </mxCell>
        <mxCell id="57" value="8:BusinessLayer.Delivery" style="swimlane;fontStyle=0;align=center;verticalAlign=top;childLayout=stackLayout;horizontal=1;startSize=26;horizontalStack=0;resizeParent=1;resizeLast=0;collapsible=1;marginBottom=0;rounded=0;shadow=0;strokeWidth=1;" parent="WIyWlLk6GJQsqaUBKTNV-1" vertex="1">
          <mxGeometry x="601" y="405" width="220" height="280" as="geometry">
            <mxRectangle x="340" y="380" width="170" height="26" as="alternateBounds" />
          </mxGeometry>
        </mxCell>
        <mxCell id="58" value="id: 8" style="text;align=left;verticalAlign=top;spacingLeft=4;spacingRight=4;overflow=hidden;rotatable=0;points=[[0,0.5],[1,0.5]];portConstraint=eastwest;" parent="57" vertex="1">
          <mxGeometry y="26" width="220" height="26" as="geometry" />
        </mxCell>
        <mxCell id="59" value="date: 2000/01/01" style="text;align=left;verticalAlign=top;spacingLeft=4;spacingRight=4;overflow=hidden;rotatable=0;points=[[0,0.5],[1,0.5]];portConstraint=eastwest;" parent="57" vertex="1">
          <mxGeometry y="52" width="220" height="26" as="geometry" />
        </mxCell>
        <mxCell id="60" value="time: 14:00" style="text;align=left;verticalAlign=top;spacingLeft=4;spacingRight=4;overflow=hidden;rotatable=0;points=[[0,0.5],[1,0.5]];portConstraint=eastwest;" parent="57" vertex="1">
          <mxGeometry y="78" width="220" height="26" as="geometry" />
        </mxCell>
        <mxCell id="61" value="source: Beer Sheva 6" style="text;align=left;verticalAlign=top;spacingLeft=4;spacingRight=4;overflow=hidden;rotatable=0;points=[[0,0.5],[1,0.5]];portConstraint=eastwest;" parent="57" vertex="1">
          <mxGeometry y="104" width="220" height="26" as="geometry" />
        </mxCell>
        <mxCell id="62" value="destinations: [8BeerSheva6,8Tel Aviv3]" style="text;align=left;verticalAlign=top;spacingLeft=4;spacingRight=4;overflow=hidden;rotatable=0;points=[[0,0.5],[1,0.5]];portConstraint=eastwest;" parent="57" vertex="1">
          <mxGeometry y="130" width="220" height="26" as="geometry" />
        </mxCell>
        <mxCell id="63" value="truckId: 1235" style="text;align=left;verticalAlign=top;spacingLeft=4;spacingRight=4;overflow=hidden;rotatable=0;points=[[0,0.5],[1,0.5]];portConstraint=eastwest;" parent="57" vertex="1">
          <mxGeometry y="156" width="220" height="26" as="geometry" />
        </mxCell>
        <mxCell id="64" value="driverId:Â 483546378" style="text;align=left;verticalAlign=top;spacingLeft=4;spacingRight=4;overflow=hidden;rotatable=0;points=[[0,0.5],[1,0.5]];portConstraint=eastwest;" parent="57" vertex="1">
          <mxGeometry y="182" width="220" height="26" as="geometry" />
        </mxCell>
        <mxCell id="65" value="startingWeight: 2055" style="text;align=left;verticalAlign=top;spacingLeft=4;spacingRight=4;overflow=hidden;rotatable=0;points=[[0,0.5],[1,0.5]];portConstraint=eastwest;" parent="57" vertex="1">
          <mxGeometry y="208" width="220" height="24" as="geometry" />
        </mxCell>
        <mxCell id="66" value="status: COMPLETED" style="text;align=left;verticalAlign=top;spacingLeft=4;spacingRight=4;overflow=hidden;rotatable=0;points=[[0,0.5],[1,0.5]];portConstraint=eastwest;" parent="57" vertex="1">
          <mxGeometry y="232" width="220" height="24" as="geometry" />
        </mxCell>
        <mxCell id="67" value="maxWeight: 4000" style="text;align=left;verticalAlign=top;spacingLeft=4;spacingRight=4;overflow=hidden;rotatable=0;points=[[0,0.5],[1,0.5]];portConstraint=eastwest;" parent="57" vertex="1">
          <mxGeometry y="256" width="220" height="24" as="geometry" />
        </mxCell>
        <mxCell id="68" value="1234: Truck" style="swimlane;fontStyle=0;align=center;verticalAlign=top;childLayout=stackLayout;horizontal=1;startSize=26;horizontalStack=0;resizeParent=1;resizeLast=0;collapsible=1;marginBottom=0;rounded=0;shadow=0;strokeWidth=1;" parent="WIyWlLk6GJQsqaUBKTNV-1" vertex="1">
          <mxGeometry x="460" y="105" width="170" height="200" as="geometry">
            <mxRectangle x="130" y="380" width="160" height="26" as="alternateBounds" />
          </mxGeometry>
        </mxCell>
        <mxCell id="69" value="Id: 1234" style="text;align=left;verticalAlign=top;spacingLeft=4;spacingRight=4;overflow=hidden;rotatable=0;points=[[0,0.5],[1,0.5]];portConstraint=eastwest;" parent="68" vertex="1">
          <mxGeometry y="26" width="170" height="24" as="geometry" />
        </mxCell>
        <mxCell id="70" value="type: refrigeration" style="text;align=left;verticalAlign=top;spacingLeft=4;spacingRight=4;overflow=hidden;rotatable=0;points=[[0,0.5],[1,0.5]];portConstraint=eastwest;" parent="68" vertex="1">
          <mxGeometry y="50" width="170" height="24" as="geometry" />
        </mxCell>
        <mxCell id="71" value="model: Mercedes" style="text;align=left;verticalAlign=top;spacingLeft=4;spacingRight=4;overflow=hidden;rotatable=0;points=[[0,0.5],[1,0.5]];portConstraint=eastwest;" parent="68" vertex="1">
          <mxGeometry y="74" width="170" height="26" as="geometry" />
        </mxCell>
        <mxCell id="72" value="netWeight: 2000" style="text;align=left;verticalAlign=top;spacingLeft=4;spacingRight=4;overflow=hidden;rotatable=0;points=[[0,0.5],[1,0.5]];portConstraint=eastwest;" parent="68" vertex="1">
          <mxGeometry y="100" width="170" height="24" as="geometry" />
        </mxCell>
        <mxCell id="73" value="maxWeight: 4000" style="text;align=left;verticalAlign=top;spacingLeft=4;spacingRight=4;overflow=hidden;rotatable=0;points=[[0,0.5],[1,0.5]];portConstraint=eastwest;" parent="68" vertex="1">
          <mxGeometry y="124" width="170" height="24" as="geometry" />
        </mxCell>
        <mxCell id="74" value="status: AVAILABLE" style="text;align=left;verticalAlign=top;spacingLeft=4;spacingRight=4;overflow=hidden;rotatable=0;points=[[0,0.5],[1,0.5]];portConstraint=eastwest;" parent="68" vertex="1">
          <mxGeometry y="148" width="170" height="24" as="geometry" />
        </mxCell>
        <mxCell id="75" value="deliveryDates: [2000/01/01]" style="text;align=left;verticalAlign=top;spacingLeft=4;spacingRight=4;overflow=hidden;rotatable=0;points=[[0,0.5],[1,0.5]];portConstraint=eastwest;" parent="68" vertex="1">
          <mxGeometry y="172" width="170" height="24" as="geometry" />
        </mxCell>
        <mxCell id="170" value="unloads" style="edgeStyle=orthogonalEdgeStyle;rounded=0;orthogonalLoop=1;jettySize=auto;html=1;entryX=0.5;entryY=0;entryDx=0;entryDy=0;endArrow=none;endFill=0;startArrow=diamondThin;startFill=0;" parent="WIyWlLk6GJQsqaUBKTNV-1" source="82" target="113" edge="1">
          <mxGeometry relative="1" as="geometry" />
        </mxCell>
        <mxCell id="171" value="unloads" style="edgeStyle=orthogonalEdgeStyle;rounded=0;orthogonalLoop=1;jettySize=auto;html=1;entryX=0.5;entryY=0;entryDx=0;entryDy=0;endArrow=none;endFill=0;startArrow=diamondThin;startFill=0;" parent="WIyWlLk6GJQsqaUBKTNV-1" source="82" edge="1">
          <mxGeometry relative="1" as="geometry">
            <mxPoint x="754.75" y="940" as="targetPoint" />
            <Array as="points">
              <mxPoint x="710" y="918" />
              <mxPoint x="755" y="918" />
            </Array>
          </mxGeometry>
        </mxCell>
        <mxCell id="82" value="8TelAviv3:Stop" style="swimlane;fontStyle=0;align=center;verticalAlign=top;childLayout=stackLayout;horizontal=1;startSize=26;horizontalStack=0;resizeParent=1;resizeLast=0;collapsible=1;marginBottom=0;rounded=0;shadow=0;strokeWidth=1;" parent="WIyWlLk6GJQsqaUBKTNV-1" vertex="1">
          <mxGeometry x="592.25" y="750" width="210" height="146" as="geometry">
            <mxRectangle x="130" y="380" width="160" height="26" as="alternateBounds" />
          </mxGeometry>
        </mxCell>
        <mxCell id="83" value="deliveryID: 8" style="text;align=left;verticalAlign=top;spacingLeft=4;spacingRight=4;overflow=hidden;rotatable=0;points=[[0,0.5],[1,0.5]];portConstraint=eastwest;" parent="82" vertex="1">
          <mxGeometry y="26" width="210" height="24" as="geometry" />
        </mxCell>
        <mxCell id="84" value="destination: Tel Aviv 3" style="text;align=left;verticalAlign=top;spacingLeft=4;spacingRight=4;overflow=hidden;rotatable=0;points=[[0,0.5],[1,0.5]];portConstraint=eastwest;" parent="82" vertex="1">
          <mxGeometry y="50" width="210" height="24" as="geometry" />
        </mxCell>
        <mxCell id="85" value="loadList: []" style="text;align=left;verticalAlign=top;spacingLeft=4;spacingRight=4;overflow=hidden;rotatable=0;points=[[0,0.5],[1,0.5]];portConstraint=eastwest;" parent="82" vertex="1">
          <mxGeometry y="74" width="210" height="24" as="geometry" />
        </mxCell>
        <mxCell id="86" value="unloadList: [20_8_2,10_8_1]" style="text;align=left;verticalAlign=top;spacingLeft=4;spacingRight=4;overflow=hidden;rotatable=0;points=[[0,0.5],[1,0.5]];portConstraint=eastwest;" parent="82" vertex="1">
          <mxGeometry y="98" width="210" height="24" as="geometry" />
        </mxCell>
        <mxCell id="87" value="status: VISITED" style="text;align=left;verticalAlign=top;spacingLeft=4;spacingRight=4;overflow=hidden;rotatable=0;points=[[0,0.5],[1,0.5]];portConstraint=eastwest;" parent="82" vertex="1">
          <mxGeometry y="122" width="210" height="24" as="geometry" />
        </mxCell>
        <mxCell id="184" value="refers to" style="edgeStyle=orthogonalEdgeStyle;rounded=0;orthogonalLoop=1;jettySize=auto;html=1;entryX=0.749;entryY=1.052;entryDx=0;entryDy=0;entryPerimeter=0;endArrow=none;endFill=0;" parent="WIyWlLk6GJQsqaUBKTNV-1" source="88" target="126" edge="1">
          <mxGeometry relative="1" as="geometry">
            <Array as="points">
              <mxPoint x="490" y="730" />
              <mxPoint x="350" y="730" />
              <mxPoint x="350" y="1150" />
              <mxPoint x="787" y="1150" />
            </Array>
          </mxGeometry>
        </mxCell>
        <mxCell id="88" value="1:ItemOrder" style="swimlane;fontStyle=0;align=center;verticalAlign=top;childLayout=stackLayout;horizontal=1;startSize=26;horizontalStack=0;resizeParent=1;resizeLast=0;collapsible=1;marginBottom=0;rounded=0;shadow=0;strokeWidth=1;" parent="WIyWlLk6GJQsqaUBKTNV-1" vertex="1">
          <mxGeometry x="420" y="400" width="139.5" height="290" as="geometry">
            <mxRectangle x="130" y="380" width="160" height="26" as="alternateBounds" />
          </mxGeometry>
        </mxCell>
        <mxCell id="89" value="id:1" style="text;align=left;verticalAlign=top;spacingLeft=4;spacingRight=4;overflow=hidden;rotatable=0;points=[[0,0.5],[1,0.5]];portConstraint=eastwest;" parent="88" vertex="1">
          <mxGeometry y="26" width="139.5" height="24" as="geometry" />
        </mxCell>
        <mxCell id="90" value="itemId: 1" style="text;align=left;verticalAlign=top;spacingLeft=4;spacingRight=4;overflow=hidden;rotatable=0;points=[[0,0.5],[1,0.5]];portConstraint=eastwest;" parent="88" vertex="1">
          <mxGeometry y="50" width="139.5" height="24" as="geometry" />
        </mxCell>
        <mxCell id="91" value="deliveryOrderId: 2" style="text;align=left;verticalAlign=top;spacingLeft=4;spacingRight=4;overflow=hidden;rotatable=0;points=[[0,0.5],[1,0.5]];portConstraint=eastwest;" parent="88" vertex="1">
          <mxGeometry y="74" width="139.5" height="24" as="geometry" />
        </mxCell>
        <mxCell id="92" value="source: Beer Sheva 6" style="text;align=left;verticalAlign=top;spacingLeft=4;spacingRight=4;overflow=hidden;rotatable=0;points=[[0,0.5],[1,0.5]];portConstraint=eastwest;" parent="88" vertex="1">
          <mxGeometry y="98" width="139.5" height="24" as="geometry" />
        </mxCell>
        <mxCell id="93" value="destination: Tel Aviv 3" style="text;align=left;verticalAlign=top;spacingLeft=4;spacingRight=4;overflow=hidden;rotatable=0;points=[[0,0.5],[1,0.5]];portConstraint=eastwest;" parent="88" vertex="1">
          <mxGeometry y="122" width="139.5" height="24" as="geometry" />
        </mxCell>
        <mxCell id="94" value="quantity: 50" style="text;align=left;verticalAlign=top;spacingLeft=4;spacingRight=4;overflow=hidden;rotatable=0;points=[[0,0.5],[1,0.5]];portConstraint=eastwest;" parent="88" vertex="1">
          <mxGeometry y="146" width="139.5" height="24" as="geometry" />
        </mxCell>
        <mxCell id="95" value="refrigeration: true" style="text;align=left;verticalAlign=top;spacingLeft=4;spacingRight=4;overflow=hidden;rotatable=0;points=[[0,0.5],[1,0.5]];portConstraint=eastwest;" parent="88" vertex="1">
          <mxGeometry y="170" width="139.5" height="24" as="geometry" />
        </mxCell>
        <mxCell id="96" value="status: COMPLETED" style="text;align=left;verticalAlign=top;spacingLeft=4;spacingRight=4;overflow=hidden;rotatable=0;points=[[0,0.5],[1,0.5]];portConstraint=eastwest;" parent="88" vertex="1">
          <mxGeometry y="194" width="139.5" height="24" as="geometry" />
        </mxCell>
        <mxCell id="97" value="directDelivery: true" style="text;align=left;verticalAlign=top;spacingLeft=4;spacingRight=4;overflow=hidden;rotatable=0;points=[[0,0.5],[1,0.5]];portConstraint=eastwest;" parent="88" vertex="1">
          <mxGeometry y="218" width="139.5" height="24" as="geometry" />
        </mxCell>
        <mxCell id="98" value="itemDeliveryId1: 10" style="text;align=left;verticalAlign=top;spacingLeft=4;spacingRight=4;overflow=hidden;rotatable=0;points=[[0,0.5],[1,0.5]];portConstraint=eastwest;" parent="88" vertex="1">
          <mxGeometry y="242" width="139.5" height="24" as="geometry" />
        </mxCell>
        <mxCell id="99" value="itemDeliveryId2: -1" style="text;align=left;verticalAlign=top;spacingLeft=4;spacingRight=4;overflow=hidden;rotatable=0;points=[[0,0.5],[1,0.5]];portConstraint=eastwest;" parent="88" vertex="1">
          <mxGeometry y="266" width="139.5" height="24" as="geometry" />
        </mxCell>
        <mxCell id="185" value="refers to" style="edgeStyle=orthogonalEdgeStyle;rounded=0;orthogonalLoop=1;jettySize=auto;html=1;entryX=0;entryY=0.5;entryDx=0;entryDy=0;endArrow=none;endFill=0;" parent="WIyWlLk6GJQsqaUBKTNV-1" source="100" target="117" edge="1">
          <mxGeometry relative="1" as="geometry" />
        </mxCell>
        <mxCell id="100" value="2:ItemOrder" style="swimlane;fontStyle=0;align=center;verticalAlign=top;childLayout=stackLayout;horizontal=1;startSize=26;horizontalStack=0;resizeParent=1;resizeLast=0;collapsible=1;marginBottom=0;rounded=0;shadow=0;strokeWidth=1;" parent="WIyWlLk6GJQsqaUBKTNV-1" vertex="1">
          <mxGeometry x="258.25" y="400" width="139.5" height="290" as="geometry">
            <mxRectangle x="130" y="380" width="160" height="26" as="alternateBounds" />
          </mxGeometry>
        </mxCell>
        <mxCell id="101" value="id: 2" style="text;align=left;verticalAlign=top;spacingLeft=4;spacingRight=4;overflow=hidden;rotatable=0;points=[[0,0.5],[1,0.5]];portConstraint=eastwest;" parent="100" vertex="1">
          <mxGeometry y="26" width="139.5" height="24" as="geometry" />
        </mxCell>
        <mxCell id="102" value="itemId: 2" style="text;align=left;verticalAlign=top;spacingLeft=4;spacingRight=4;overflow=hidden;rotatable=0;points=[[0,0.5],[1,0.5]];portConstraint=eastwest;" parent="100" vertex="1">
          <mxGeometry y="50" width="139.5" height="24" as="geometry" />
        </mxCell>
        <mxCell id="103" value="deliveryOrderId: 2" style="text;align=left;verticalAlign=top;spacingLeft=4;spacingRight=4;overflow=hidden;rotatable=0;points=[[0,0.5],[1,0.5]];portConstraint=eastwest;" parent="100" vertex="1">
          <mxGeometry y="74" width="139.5" height="24" as="geometry" />
        </mxCell>
        <mxCell id="104" value="source: Beer Sheva 6" style="text;align=left;verticalAlign=top;spacingLeft=4;spacingRight=4;overflow=hidden;rotatable=0;points=[[0,0.5],[1,0.5]];portConstraint=eastwest;" parent="100" vertex="1">
          <mxGeometry y="98" width="139.5" height="24" as="geometry" />
        </mxCell>
        <mxCell id="105" value="destination: Tel Aviv 3" style="text;align=left;verticalAlign=top;spacingLeft=4;spacingRight=4;overflow=hidden;rotatable=0;points=[[0,0.5],[1,0.5]];portConstraint=eastwest;" parent="100" vertex="1">
          <mxGeometry y="122" width="139.5" height="24" as="geometry" />
        </mxCell>
        <mxCell id="106" value="quantity: 30" style="text;align=left;verticalAlign=top;spacingLeft=4;spacingRight=4;overflow=hidden;rotatable=0;points=[[0,0.5],[1,0.5]];portConstraint=eastwest;" parent="100" vertex="1">
          <mxGeometry y="146" width="139.5" height="24" as="geometry" />
        </mxCell>
        <mxCell id="107" value="refrigeration: true" style="text;align=left;verticalAlign=top;spacingLeft=4;spacingRight=4;overflow=hidden;rotatable=0;points=[[0,0.5],[1,0.5]];portConstraint=eastwest;" parent="100" vertex="1">
          <mxGeometry y="170" width="139.5" height="24" as="geometry" />
        </mxCell>
        <mxCell id="108" value="status: COMPLETED" style="text;align=left;verticalAlign=top;spacingLeft=4;spacingRight=4;overflow=hidden;rotatable=0;points=[[0,0.5],[1,0.5]];portConstraint=eastwest;" parent="100" vertex="1">
          <mxGeometry y="194" width="139.5" height="24" as="geometry" />
        </mxCell>
        <mxCell id="109" value="directDelivery: true" style="text;align=left;verticalAlign=top;spacingLeft=4;spacingRight=4;overflow=hidden;rotatable=0;points=[[0,0.5],[1,0.5]];portConstraint=eastwest;" parent="100" vertex="1">
          <mxGeometry y="218" width="139.5" height="24" as="geometry" />
        </mxCell>
        <mxCell id="110" value="itemDeliveryId1: 20" style="text;align=left;verticalAlign=top;spacingLeft=4;spacingRight=4;overflow=hidden;rotatable=0;points=[[0,0.5],[1,0.5]];portConstraint=eastwest;" parent="100" vertex="1">
          <mxGeometry y="242" width="139.5" height="24" as="geometry" />
        </mxCell>
        <mxCell id="111" value="itemDeliveryId2: -1" style="text;align=left;verticalAlign=top;spacingLeft=4;spacingRight=4;overflow=hidden;rotatable=0;points=[[0,0.5],[1,0.5]];portConstraint=eastwest;" parent="100" vertex="1">
          <mxGeometry y="266" width="139.5" height="24" as="geometry" />
        </mxCell>
        <mxCell id="113" value="20_8_2: ItemDelivery" style="swimlane;fontStyle=0;align=center;verticalAlign=top;childLayout=stackLayout;horizontal=1;startSize=26;horizontalStack=0;resizeParent=1;resizeLast=0;collapsible=1;marginBottom=0;rounded=0;shadow=0;strokeWidth=1;" parent="WIyWlLk6GJQsqaUBKTNV-1" vertex="1">
          <mxGeometry x="550" y="940" width="126" height="170" as="geometry">
            <mxRectangle x="130" y="380" width="160" height="26" as="alternateBounds" />
          </mxGeometry>
        </mxCell>
        <mxCell id="114" value="id: 20" style="text;align=left;verticalAlign=top;spacingLeft=4;spacingRight=4;overflow=hidden;rotatable=0;points=[[0,0.5],[1,0.5]];portConstraint=eastwest;" parent="113" vertex="1">
          <mxGeometry y="26" width="126" height="24" as="geometry" />
        </mxCell>
        <mxCell id="115" value="deliveryID: 8" style="text;align=left;verticalAlign=top;spacingLeft=4;spacingRight=4;overflow=hidden;rotatable=0;points=[[0,0.5],[1,0.5]];portConstraint=eastwest;" parent="113" vertex="1">
          <mxGeometry y="50" width="126" height="24" as="geometry" />
        </mxCell>
        <mxCell id="116" value="itemOrder: 2" style="text;align=left;verticalAlign=top;spacingLeft=4;spacingRight=4;overflow=hidden;rotatable=0;points=[[0,0.5],[1,0.5]];portConstraint=eastwest;" parent="113" vertex="1">
          <mxGeometry y="74" width="126" height="24" as="geometry" />
        </mxCell>
        <mxCell id="117" value="source: Beer Sheva 6" style="text;align=left;verticalAlign=top;spacingLeft=4;spacingRight=4;overflow=hidden;rotatable=0;points=[[0,0.5],[1,0.5]];portConstraint=eastwest;" parent="113" vertex="1">
          <mxGeometry y="98" width="126" height="24" as="geometry" />
        </mxCell>
        <mxCell id="118" value="destination: Tel Aviv 3" style="text;align=left;verticalAlign=top;spacingLeft=4;spacingRight=4;overflow=hidden;rotatable=0;points=[[0,0.5],[1,0.5]];portConstraint=eastwest;" parent="113" vertex="1">
          <mxGeometry y="122" width="126" height="24" as="geometry" />
        </mxCell>
        <mxCell id="119" value="status: COMPLETED" style="text;align=left;verticalAlign=top;spacingLeft=4;spacingRight=4;overflow=hidden;rotatable=0;points=[[0,0.5],[1,0.5]];portConstraint=eastwest;" parent="113" vertex="1">
          <mxGeometry y="146" width="126" height="24" as="geometry" />
        </mxCell>
        <mxCell id="120" value="10_8_1:ItemDelivery" style="swimlane;fontStyle=0;align=center;verticalAlign=top;childLayout=stackLayout;horizontal=1;startSize=26;horizontalStack=0;resizeParent=1;resizeLast=0;collapsible=1;marginBottom=0;rounded=0;shadow=0;strokeWidth=1;" parent="WIyWlLk6GJQsqaUBKTNV-1" vertex="1">
          <mxGeometry x="690" y="940" width="129.5" height="170" as="geometry">
            <mxRectangle x="130" y="380" width="160" height="26" as="alternateBounds" />
          </mxGeometry>
        </mxCell>
        <mxCell id="121" value="id: 10" style="text;align=left;verticalAlign=top;spacingLeft=4;spacingRight=4;overflow=hidden;rotatable=0;points=[[0,0.5],[1,0.5]];portConstraint=eastwest;" parent="120" vertex="1">
          <mxGeometry y="26" width="129.5" height="24" as="geometry" />
        </mxCell>
        <mxCell id="122" value="deliveryID: 8" style="text;align=left;verticalAlign=top;spacingLeft=4;spacingRight=4;overflow=hidden;rotatable=0;points=[[0,0.5],[1,0.5]];portConstraint=eastwest;" parent="120" vertex="1">
          <mxGeometry y="50" width="129.5" height="24" as="geometry" />
        </mxCell>
        <mxCell id="123" value="itemOrder: 1" style="text;align=left;verticalAlign=top;spacingLeft=4;spacingRight=4;overflow=hidden;rotatable=0;points=[[0,0.5],[1,0.5]];portConstraint=eastwest;" parent="120" vertex="1">
          <mxGeometry y="74" width="129.5" height="24" as="geometry" />
        </mxCell>
        <mxCell id="124" value="source: Beer Sheva 6" style="text;align=left;verticalAlign=top;spacingLeft=4;spacingRight=4;overflow=hidden;rotatable=0;points=[[0,0.5],[1,0.5]];portConstraint=eastwest;" parent="120" vertex="1">
          <mxGeometry y="98" width="129.5" height="24" as="geometry" />
        </mxCell>
        <mxCell id="125" value="destination: Tel Aviv 3" style="text;align=left;verticalAlign=top;spacingLeft=4;spacingRight=4;overflow=hidden;rotatable=0;points=[[0,0.5],[1,0.5]];portConstraint=eastwest;" parent="120" vertex="1">
          <mxGeometry y="122" width="129.5" height="24" as="geometry" />
        </mxCell>
        <mxCell id="126" value="status: COMPLETED" style="text;align=left;verticalAlign=top;spacingLeft=4;spacingRight=4;overflow=hidden;rotatable=0;points=[[0,0.5],[1,0.5]];portConstraint=eastwest;" parent="120" vertex="1">
          <mxGeometry y="146" width="129.5" height="24" as="geometry" />
        </mxCell>
        <mxCell id="148" value="contains" style="edgeStyle=orthogonalEdgeStyle;rounded=0;orthogonalLoop=1;jettySize=auto;html=1;exitX=0.25;exitY=1;exitDx=0;exitDy=0;entryX=0.25;entryY=0;entryDx=0;entryDy=0;endArrow=none;endFill=0;startArrow=diamondThin;startFill=0;" parent="WIyWlLk6GJQsqaUBKTNV-1" source="128" target="35" edge="1">
          <mxGeometry relative="1" as="geometry">
            <Array as="points">
              <mxPoint x="605" y="60" />
              <mxPoint x="300" y="60" />
            </Array>
          </mxGeometry>
        </mxCell>
        <mxCell id="150" value="contains" style="edgeStyle=orthogonalEdgeStyle;rounded=0;orthogonalLoop=1;jettySize=auto;html=1;exitX=0.75;exitY=1;exitDx=0;exitDy=0;entryX=0.5;entryY=0;entryDx=0;entryDy=0;endArrow=none;endFill=0;startArrow=diamondThin;startFill=0;" parent="WIyWlLk6GJQsqaUBKTNV-1" source="128" target="68" edge="1">
          <mxGeometry relative="1" as="geometry">
            <Array as="points">
              <mxPoint x="715" y="80" />
              <mxPoint x="545" y="80" />
            </Array>
          </mxGeometry>
        </mxCell>
        <mxCell id="151" value="contains" style="edgeStyle=orthogonalEdgeStyle;rounded=0;orthogonalLoop=1;jettySize=auto;html=1;exitX=1;exitY=0.5;exitDx=0;exitDy=0;entryX=0.5;entryY=0;entryDx=0;entryDy=0;endArrow=none;endFill=0;startArrow=diamondThin;startFill=0;" parent="WIyWlLk6GJQsqaUBKTNV-1" source="128" target="41" edge="1">
          <mxGeometry relative="1" as="geometry">
            <Array as="points">
              <mxPoint x="790" y="25" />
              <mxPoint x="790" y="80" />
              <mxPoint x="720" y="80" />
            </Array>
          </mxGeometry>
        </mxCell>
        <mxCell id="2IBe6KhLyTTvs5EpKumv-224" style="edgeStyle=orthogonalEdgeStyle;rounded=0;orthogonalLoop=1;jettySize=auto;html=1;entryX=0.873;entryY=-0.049;entryDx=0;entryDy=0;entryPerimeter=0;startArrow=diamondThin;startFill=0;endArrow=none;endFill=0;" edge="1" parent="WIyWlLk6GJQsqaUBKTNV-1" source="128" target="2IBe6KhLyTTvs5EpKumv-215">
          <mxGeometry relative="1" as="geometry">
            <Array as="points">
              <mxPoint x="630" y="70" />
              <mxPoint x="239" y="70" />
            </Array>
          </mxGeometry>
        </mxCell>
        <mxCell id="2IBe6KhLyTTvs5EpKumv-225" value="contains" style="edgeLabel;html=1;align=center;verticalAlign=middle;resizable=0;points=[];" vertex="1" connectable="0" parent="2IBe6KhLyTTvs5EpKumv-224">
          <mxGeometry x="-0.0003" y="-1" relative="1" as="geometry">
            <mxPoint y="1" as="offset" />
          </mxGeometry>
        </mxCell>
        <mxCell id="128" value="resourceController: ResourceController" style="swimlane;fontStyle=0;align=center;verticalAlign=top;childLayout=stackLayout;horizontal=1;startSize=26;horizontalStack=0;resizeParent=1;resizeLast=0;collapsible=1;marginBottom=0;rounded=0;shadow=0;strokeWidth=1;" parent="WIyWlLk6GJQsqaUBKTNV-1" vertex="1">
          <mxGeometry x="550" y="10" width="220" height="30" as="geometry">
            <mxRectangle x="550" y="140" width="160" height="26" as="alternateBounds" />
          </mxGeometry>
        </mxCell>
        <mxCell id="164" value="parses" style="edgeStyle=orthogonalEdgeStyle;rounded=0;orthogonalLoop=1;jettySize=auto;html=1;exitX=0.5;exitY=1;exitDx=0;exitDy=0;entryX=0.5;entryY=0;entryDx=0;entryDy=0;endArrow=none;endFill=0;startArrow=diamondThin;startFill=0;" parent="WIyWlLk6GJQsqaUBKTNV-1" source="132" target="47" edge="1">
          <mxGeometry relative="1" as="geometry">
            <mxPoint x="130" y="385" as="sourcePoint" />
            <mxPoint x="130" y="440" as="targetPoint" />
          </mxGeometry>
        </mxCell>
        <mxCell id="167" value="creates" style="edgeStyle=orthogonalEdgeStyle;rounded=0;orthogonalLoop=1;jettySize=auto;html=1;exitX=1;exitY=0.5;exitDx=0;exitDy=0;entryX=0.5;entryY=0;entryDx=0;entryDy=0;endArrow=none;endFill=0;startArrow=diamondThin;startFill=0;" parent="WIyWlLk6GJQsqaUBKTNV-1" source="132" target="57" edge="1">
          <mxGeometry relative="1" as="geometry">
            <Array as="points">
              <mxPoint x="260" y="350" />
              <mxPoint x="710" y="350" />
              <mxPoint x="710" y="405" />
            </Array>
            <mxPoint x="260" y="370" as="sourcePoint" />
          </mxGeometry>
        </mxCell>
        <mxCell id="182" value="parses" style="edgeStyle=orthogonalEdgeStyle;rounded=0;orthogonalLoop=1;jettySize=auto;html=1;exitX=0.84;exitY=0.965;exitDx=0;exitDy=0;endArrow=none;endFill=0;exitPerimeter=0;startArrow=diamondThin;startFill=0;" parent="WIyWlLk6GJQsqaUBKTNV-1" source="132" target="88" edge="1">
          <mxGeometry relative="1" as="geometry">
            <Array as="points">
              <mxPoint x="218" y="360" />
              <mxPoint x="490" y="360" />
            </Array>
            <mxPoint x="260" y="385" as="sourcePoint" />
          </mxGeometry>
        </mxCell>
        <mxCell id="183" value="parses" style="edgeStyle=orthogonalEdgeStyle;rounded=0;orthogonalLoop=1;jettySize=auto;html=1;entryX=0.5;entryY=0;entryDx=0;entryDy=0;endArrow=none;endFill=0;exitX=0.75;exitY=1;exitDx=0;exitDy=0;startArrow=diamondThin;startFill=0;" parent="WIyWlLk6GJQsqaUBKTNV-1" source="132" target="100" edge="1">
          <mxGeometry relative="1" as="geometry">
            <Array as="points">
              <mxPoint x="195" y="370" />
              <mxPoint x="328" y="370" />
            </Array>
            <mxPoint x="170" y="370" as="sourcePoint" />
          </mxGeometry>
        </mxCell>
        <mxCell id="W6Eq-dex9__hlxGE6Bs_-208" style="edgeStyle=orthogonalEdgeStyle;rounded=0;orthogonalLoop=1;jettySize=auto;html=1;exitX=0;exitY=0;exitDx=0;exitDy=0;entryX=0.5;entryY=1;entryDx=0;entryDy=0;endArrow=none;endFill=0;startArrow=diamondThin;startFill=1;" parent="WIyWlLk6GJQsqaUBKTNV-1" source="132" target="W6Eq-dex9__hlxGE6Bs_-204" edge="1">
          <mxGeometry relative="1" as="geometry">
            <Array as="points">
              <mxPoint y="60" />
              <mxPoint x="-520" y="60" />
            </Array>
          </mxGeometry>
        </mxCell>
        <mxCell id="W6Eq-dex9__hlxGE6Bs_-209" value="contains" style="edgeLabel;html=1;align=center;verticalAlign=middle;resizable=0;points=[];" parent="W6Eq-dex9__hlxGE6Bs_-208" vertex="1" connectable="0">
          <mxGeometry x="0.5064" y="-1" relative="1" as="geometry">
            <mxPoint as="offset" />
          </mxGeometry>
        </mxCell>
        <mxCell id="132" value="deliveryController: DeliveryController" style="swimlane;fontStyle=0;align=center;verticalAlign=top;childLayout=stackLayout;horizontal=1;startSize=26;horizontalStack=0;resizeParent=1;resizeLast=0;collapsible=1;marginBottom=0;rounded=0;shadow=0;strokeWidth=1;" parent="WIyWlLk6GJQsqaUBKTNV-1" vertex="1">
          <mxGeometry y="305" width="260" height="30" as="geometry">
            <mxRectangle x="10" y="780" width="160" height="26" as="alternateBounds" />
          </mxGeometry>
        </mxCell>
        <mxCell id="147" value="contains" style="edgeStyle=orthogonalEdgeStyle;rounded=0;orthogonalLoop=1;jettySize=auto;html=1;entryX=0.5;entryY=0;entryDx=0;entryDy=0;endArrow=none;endFill=0;startArrow=diamondThin;startFill=1;" parent="WIyWlLk6GJQsqaUBKTNV-1" source="142" target="132" edge="1">
          <mxGeometry relative="1" as="geometry">
            <Array as="points">
              <mxPoint x="70" y="270" />
              <mxPoint x="130" y="270" />
            </Array>
          </mxGeometry>
        </mxCell>
        <mxCell id="181" value="contains" style="edgeStyle=orthogonalEdgeStyle;rounded=0;orthogonalLoop=1;jettySize=auto;html=1;entryX=0;entryY=0.5;entryDx=0;entryDy=0;endArrow=none;endFill=0;startArrow=diamondThin;startFill=1;" parent="WIyWlLk6GJQsqaUBKTNV-1" source="142" target="128" edge="1">
          <mxGeometry relative="1" as="geometry" />
        </mxCell>
        <mxCell id="142" value="deliveryService: DeliveryService" style="swimlane;fontStyle=0;align=center;verticalAlign=top;childLayout=stackLayout;horizontal=1;startSize=26;horizontalStack=0;resizeParent=1;resizeLast=0;collapsible=1;marginBottom=0;rounded=0;shadow=0;strokeWidth=1;" parent="WIyWlLk6GJQsqaUBKTNV-1" vertex="1">
          <mxGeometry x="10" y="10" width="218" height="30" as="geometry">
            <mxRectangle x="230" y="140" width="160" height="26" as="alternateBounds" />
          </mxGeometry>
        </mxCell>
        <mxCell id="179" value="loads" style="edgeStyle=orthogonalEdgeStyle;rounded=0;orthogonalLoop=1;jettySize=auto;html=1;entryX=0.25;entryY=0;entryDx=0;entryDy=0;endArrow=none;endFill=0;startArrow=diamondThin;startFill=0;" parent="WIyWlLk6GJQsqaUBKTNV-1" source="172" target="113" edge="1">
          <mxGeometry relative="1" as="geometry" />
        </mxCell>
        <mxCell id="180" value="loads" style="edgeStyle=orthogonalEdgeStyle;rounded=0;orthogonalLoop=1;jettySize=auto;html=1;entryX=0.51;entryY=1.025;entryDx=0;entryDy=0;entryPerimeter=0;endArrow=none;endFill=0;startArrow=diamondThin;startFill=0;" parent="WIyWlLk6GJQsqaUBKTNV-1" source="172" target="126" edge="1">
          <mxGeometry relative="1" as="geometry">
            <Array as="points">
              <mxPoint x="450" y="1130" />
              <mxPoint x="756" y="1130" />
            </Array>
          </mxGeometry>
        </mxCell>
        <mxCell id="172" value="8BeerSheva6:Stop" style="swimlane;fontStyle=0;align=center;verticalAlign=top;childLayout=stackLayout;horizontal=1;startSize=26;horizontalStack=0;resizeParent=1;resizeLast=0;collapsible=1;marginBottom=0;rounded=0;shadow=0;strokeWidth=1;" parent="WIyWlLk6GJQsqaUBKTNV-1" vertex="1">
          <mxGeometry x="370" y="750" width="210" height="146" as="geometry">
            <mxRectangle x="130" y="380" width="160" height="26" as="alternateBounds" />
          </mxGeometry>
        </mxCell>
        <mxCell id="173" value="deliveryID: 8" style="text;align=left;verticalAlign=top;spacingLeft=4;spacingRight=4;overflow=hidden;rotatable=0;points=[[0,0.5],[1,0.5]];portConstraint=eastwest;" parent="172" vertex="1">
          <mxGeometry y="26" width="210" height="24" as="geometry" />
        </mxCell>
        <mxCell id="174" value="destination: Beer Sheva 6" style="text;align=left;verticalAlign=top;spacingLeft=4;spacingRight=4;overflow=hidden;rotatable=0;points=[[0,0.5],[1,0.5]];portConstraint=eastwest;" parent="172" vertex="1">
          <mxGeometry y="50" width="210" height="24" as="geometry" />
        </mxCell>
        <mxCell id="175" value="loadList: [20_8_2,10_8_1]" style="text;align=left;verticalAlign=top;spacingLeft=4;spacingRight=4;overflow=hidden;rotatable=0;points=[[0,0.5],[1,0.5]];portConstraint=eastwest;" parent="172" vertex="1">
          <mxGeometry y="74" width="210" height="24" as="geometry" />
        </mxCell>
        <mxCell id="176" value="unloadList: []" style="text;align=left;verticalAlign=top;spacingLeft=4;spacingRight=4;overflow=hidden;rotatable=0;points=[[0,0.5],[1,0.5]];portConstraint=eastwest;" parent="172" vertex="1">
          <mxGeometry y="98" width="210" height="24" as="geometry" />
        </mxCell>
        <mxCell id="177" value="status: VISITED" style="text;align=left;verticalAlign=top;spacingLeft=4;spacingRight=4;overflow=hidden;rotatable=0;points=[[0,0.5],[1,0.5]];portConstraint=eastwest;" parent="172" vertex="1">
          <mxGeometry y="122" width="210" height="24" as="geometry" />
        </mxCell>
        <mxCell id="W6Eq-dex9__hlxGE6Bs_-200" style="edgeStyle=orthogonalEdgeStyle;rounded=0;orthogonalLoop=1;jettySize=auto;html=1;exitX=0.5;exitY=0;exitDx=0;exitDy=0;endArrow=diamondThin;endFill=1;" parent="WIyWlLk6GJQsqaUBKTNV-1" source="W6Eq-dex9__hlxGE6Bs_-185" target="41" edge="1">
          <mxGeometry relative="1" as="geometry">
            <mxPoint x="660" y="280" as="targetPoint" />
          </mxGeometry>
        </mxCell>
        <mxCell id="W6Eq-dex9__hlxGE6Bs_-203" value="contains" style="edgeLabel;html=1;align=center;verticalAlign=middle;resizable=0;points=[];" parent="W6Eq-dex9__hlxGE6Bs_-200" vertex="1" connectable="0">
          <mxGeometry x="-0.1659" y="1" relative="1" as="geometry">
            <mxPoint x="-10" as="offset" />
          </mxGeometry>
        </mxCell>
        <mxCell id="W6Eq-dex9__hlxGE6Bs_-185" value="Coordinate" style="swimlane;fontStyle=0;align=center;verticalAlign=top;childLayout=stackLayout;horizontal=1;startSize=26;horizontalStack=0;resizeParent=1;resizeLast=0;collapsible=1;marginBottom=0;rounded=0;shadow=0;strokeWidth=1;" parent="WIyWlLk6GJQsqaUBKTNV-1" vertex="1">
          <mxGeometry x="714.5" y="290" width="105" height="78" as="geometry">
            <mxRectangle x="340" y="380" width="170" height="26" as="alternateBounds" />
          </mxGeometry>
        </mxCell>
        <mxCell id="W6Eq-dex9__hlxGE6Bs_-186" value="latitude: 41.5" style="text;align=left;verticalAlign=top;spacingLeft=4;spacingRight=4;overflow=hidden;rotatable=0;points=[[0,0.5],[1,0.5]];portConstraint=eastwest;" parent="W6Eq-dex9__hlxGE6Bs_-185" vertex="1">
          <mxGeometry y="26" width="105" height="26" as="geometry" />
        </mxCell>
        <mxCell id="W6Eq-dex9__hlxGE6Bs_-187" value="longitude:41.7" style="text;align=left;verticalAlign=top;spacingLeft=4;spacingRight=4;overflow=hidden;rotatable=0;points=[[0,0.5],[1,0.5]];portConstraint=eastwest;" parent="W6Eq-dex9__hlxGE6Bs_-185" vertex="1">
          <mxGeometry y="52" width="105" height="26" as="geometry" />
        </mxCell>
        <mxCell id="W6Eq-dex9__hlxGE6Bs_-201" style="edgeStyle=orthogonalEdgeStyle;rounded=0;orthogonalLoop=1;jettySize=auto;html=1;exitX=0.5;exitY=0;exitDx=0;exitDy=0;endArrow=diamondThin;endFill=1;" parent="WIyWlLk6GJQsqaUBKTNV-1" source="W6Eq-dex9__hlxGE6Bs_-196" target="35" edge="1">
          <mxGeometry relative="1" as="geometry">
            <mxPoint x="200" y="280" as="targetPoint" />
            <Array as="points">
              <mxPoint x="360" y="260" />
              <mxPoint x="270" y="260" />
              <mxPoint x="270" y="178" />
            </Array>
          </mxGeometry>
        </mxCell>
        <mxCell id="W6Eq-dex9__hlxGE6Bs_-202" value="contains" style="edgeLabel;html=1;align=center;verticalAlign=middle;resizable=0;points=[];" parent="W6Eq-dex9__hlxGE6Bs_-201" vertex="1" connectable="0">
          <mxGeometry x="-0.1191" y="-2" relative="1" as="geometry">
            <mxPoint x="6" y="2" as="offset" />
          </mxGeometry>
        </mxCell>
        <mxCell id="W6Eq-dex9__hlxGE6Bs_-196" value="Coordinate" style="swimlane;fontStyle=0;align=center;verticalAlign=top;childLayout=stackLayout;horizontal=1;startSize=26;horizontalStack=0;resizeParent=1;resizeLast=0;collapsible=1;marginBottom=0;rounded=0;shadow=0;strokeWidth=1;" parent="WIyWlLk6GJQsqaUBKTNV-1" vertex="1">
          <mxGeometry x="300" y="267" width="120" height="78" as="geometry">
            <mxRectangle x="340" y="380" width="170" height="26" as="alternateBounds" />
          </mxGeometry>
        </mxCell>
        <mxCell id="W6Eq-dex9__hlxGE6Bs_-197" value="latitude: 40.4" style="text;align=left;verticalAlign=top;spacingLeft=4;spacingRight=4;overflow=hidden;rotatable=0;points=[[0,0.5],[1,0.5]];portConstraint=eastwest;" parent="W6Eq-dex9__hlxGE6Bs_-196" vertex="1">
          <mxGeometry y="26" width="120" height="26" as="geometry" />
        </mxCell>
        <mxCell id="W6Eq-dex9__hlxGE6Bs_-198" value="longitude:40.2" style="text;align=left;verticalAlign=top;spacingLeft=4;spacingRight=4;overflow=hidden;rotatable=0;points=[[0,0.5],[1,0.5]];portConstraint=eastwest;" parent="W6Eq-dex9__hlxGE6Bs_-196" vertex="1">
          <mxGeometry y="52" width="120" height="26" as="geometry" />
        </mxCell>
        <mxCell id="W6Eq-dex9__hlxGE6Bs_-204" value="shiftController: ShiftController" style="swimlane;fontStyle=0;align=center;verticalAlign=top;childLayout=stackLayout;horizontal=1;startSize=26;horizontalStack=0;resizeParent=1;resizeLast=0;collapsible=1;marginBottom=0;rounded=0;shadow=0;strokeWidth=1;" parent="WIyWlLk6GJQsqaUBKTNV-1" vertex="1">
          <mxGeometry x="-650" y="10" width="260" height="30" as="geometry">
            <mxRectangle x="10" y="780" width="160" height="26" as="alternateBounds" />
          </mxGeometry>
        </mxCell>
        <mxCell id="W6Eq-dex9__hlxGE6Bs_-205" value="employeeController: EmployeeController" style="swimlane;fontStyle=0;align=center;verticalAlign=top;childLayout=stackLayout;horizontal=1;startSize=26;horizontalStack=0;resizeParent=1;resizeLast=0;collapsible=1;marginBottom=0;rounded=0;shadow=0;strokeWidth=1;" parent="WIyWlLk6GJQsqaUBKTNV-1" vertex="1">
          <mxGeometry x="-360" y="10" width="260" height="30" as="geometry">
            <mxRectangle x="10" y="780" width="160" height="26" as="alternateBounds" />
          </mxGeometry>
        </mxCell>
        <mxCell id="FsEV9OsQ5VGh3jvW_iLM-402" style="rounded=0;orthogonalLoop=1;jettySize=auto;html=1;exitX=0;exitY=0.25;exitDx=0;exitDy=0;entryX=1;entryY=0.5;entryDx=0;entryDy=0;endArrow=none;endFill=0;" parent="WIyWlLk6GJQsqaUBKTNV-1" source="W6Eq-dex9__hlxGE6Bs_-210" target="FsEV9OsQ5VGh3jvW_iLM-401" edge="1">
          <mxGeometry relative="1" as="geometry" />
        </mxCell>
        <mxCell id="W6Eq-dex9__hlxGE6Bs_-210" value="&lt;p style=&quot;margin:0px;margin-top:4px;text-align:center;&quot;&gt;&lt;i&gt;&amp;lt;&amp;lt;abstract&amp;gt;&amp;gt;&lt;/i&gt;&lt;br&gt;AbstractDAO&lt;/p&gt;&lt;p style=&quot;border-color: var(--border-color); margin: 0px 0px 0px 4px;&quot;&gt;&lt;br&gt;&lt;/p&gt;&lt;hr size=&quot;1&quot;&gt;&lt;p style=&quot;margin:0px;margin-left:4px;&quot;&gt;&lt;br&gt;&lt;/p&gt;&lt;p style=&quot;margin:0px;margin-left:4px;&quot;&gt;&lt;br&gt;&lt;/p&gt;" style="verticalAlign=top;align=left;overflow=fill;fontSize=12;fontFamily=Helvetica;html=1;whiteSpace=wrap;" parent="WIyWlLk6GJQsqaUBKTNV-1" vertex="1">
          <mxGeometry x="-346.75" y="1346" width="270" height="66.25" as="geometry" />
        </mxCell>
        <mxCell id="W6Eq-dex9__hlxGE6Bs_-211" value="DeliveryDAO" style="swimlane;fontStyle=0;childLayout=stackLayout;horizontal=1;startSize=26;fillColor=none;horizontalStack=0;resizeParent=1;resizeParentMax=0;resizeLast=0;collapsible=1;marginBottom=0;whiteSpace=wrap;html=1;" parent="WIyWlLk6GJQsqaUBKTNV-1" vertex="1">
          <mxGeometry x="-11.75" y="1398" width="270" height="34" as="geometry" />
        </mxCell>
        <mxCell id="W6Eq-dex9__hlxGE6Bs_-212" value="" style="line;strokeWidth=1;fillColor=none;align=left;verticalAlign=middle;spacingTop=-1;spacingLeft=3;spacingRight=3;rotatable=0;labelPosition=right;points=[];portConstraint=eastwest;strokeColor=inherit;" parent="W6Eq-dex9__hlxGE6Bs_-211" vertex="1">
          <mxGeometry y="26" width="270" height="8" as="geometry" />
        </mxCell>
        <mxCell id="W6Eq-dex9__hlxGE6Bs_-213" value="DeliveryOrderDAO" style="swimlane;fontStyle=0;childLayout=stackLayout;horizontal=1;startSize=26;fillColor=none;horizontalStack=0;resizeParent=1;resizeParentMax=0;resizeLast=0;collapsible=1;marginBottom=0;whiteSpace=wrap;html=1;" parent="WIyWlLk6GJQsqaUBKTNV-1" vertex="1">
          <mxGeometry x="307" y="1388" width="322.25" height="34" as="geometry" />
        </mxCell>
        <mxCell id="W6Eq-dex9__hlxGE6Bs_-214" value="" style="line;strokeWidth=1;fillColor=none;align=left;verticalAlign=middle;spacingTop=-1;spacingLeft=3;spacingRight=3;rotatable=0;labelPosition=right;points=[];portConstraint=eastwest;strokeColor=inherit;" parent="W6Eq-dex9__hlxGE6Bs_-213" vertex="1">
          <mxGeometry y="26" width="322.25" height="8" as="geometry" />
        </mxCell>
        <mxCell id="W6Eq-dex9__hlxGE6Bs_-215" style="edgeStyle=orthogonalEdgeStyle;rounded=0;orthogonalLoop=1;jettySize=auto;html=1;endArrow=diamondThin;endFill=0;" parent="WIyWlLk6GJQsqaUBKTNV-1" source="W6Eq-dex9__hlxGE6Bs_-216" target="W6Eq-dex9__hlxGE6Bs_-219" edge="1">
          <mxGeometry relative="1" as="geometry">
            <Array as="points">
              <mxPoint x="315.25" y="1695.25" />
              <mxPoint x="578.25" y="1695.25" />
            </Array>
          </mxGeometry>
        </mxCell>
        <mxCell id="W6Eq-dex9__hlxGE6Bs_-216" value="StopLoadItemsDAO" style="swimlane;fontStyle=0;childLayout=stackLayout;horizontal=1;startSize=26;fillColor=none;horizontalStack=0;resizeParent=1;resizeParentMax=0;resizeLast=0;collapsible=1;marginBottom=0;whiteSpace=wrap;html=1;" parent="WIyWlLk6GJQsqaUBKTNV-1" vertex="1">
          <mxGeometry x="159.86999999999898" y="1600.25" width="310" height="34" as="geometry" />
        </mxCell>
        <mxCell id="W6Eq-dex9__hlxGE6Bs_-217" value="" style="line;strokeWidth=1;fillColor=none;align=left;verticalAlign=middle;spacingTop=-1;spacingLeft=3;spacingRight=3;rotatable=0;labelPosition=right;points=[];portConstraint=eastwest;strokeColor=inherit;" parent="W6Eq-dex9__hlxGE6Bs_-216" vertex="1">
          <mxGeometry y="26" width="310" height="8" as="geometry" />
        </mxCell>
        <mxCell id="W6Eq-dex9__hlxGE6Bs_-218" style="edgeStyle=orthogonalEdgeStyle;rounded=0;orthogonalLoop=1;jettySize=auto;html=1;endArrow=diamondThin;endFill=0;" parent="WIyWlLk6GJQsqaUBKTNV-1" source="W6Eq-dex9__hlxGE6Bs_-219" target="W6Eq-dex9__hlxGE6Bs_-222" edge="1">
          <mxGeometry relative="1" as="geometry">
            <Array as="points">
              <mxPoint x="648.25" y="1607.25" />
              <mxPoint x="578.25" y="1607.25" />
            </Array>
          </mxGeometry>
        </mxCell>
        <mxCell id="W6Eq-dex9__hlxGE6Bs_-219" value="ItemDeliveryDAO" style="swimlane;fontStyle=0;childLayout=stackLayout;horizontal=1;startSize=26;fillColor=none;horizontalStack=0;resizeParent=1;resizeParentMax=0;resizeLast=0;collapsible=1;marginBottom=0;whiteSpace=wrap;html=1;" parent="WIyWlLk6GJQsqaUBKTNV-1" vertex="1">
          <mxGeometry x="418.5" y="1720.25" width="320" height="34" as="geometry" />
        </mxCell>
        <mxCell id="W6Eq-dex9__hlxGE6Bs_-220" value="" style="line;strokeWidth=1;fillColor=none;align=left;verticalAlign=middle;spacingTop=-1;spacingLeft=3;spacingRight=3;rotatable=0;labelPosition=right;points=[];portConstraint=eastwest;strokeColor=inherit;" parent="W6Eq-dex9__hlxGE6Bs_-219" vertex="1">
          <mxGeometry y="26" width="320" height="8" as="geometry" />
        </mxCell>
        <mxCell id="W6Eq-dex9__hlxGE6Bs_-221" style="edgeStyle=orthogonalEdgeStyle;rounded=0;orthogonalLoop=1;jettySize=auto;html=1;endArrow=diamondThin;endFill=0;" parent="WIyWlLk6GJQsqaUBKTNV-1" source="W6Eq-dex9__hlxGE6Bs_-222" target="W6Eq-dex9__hlxGE6Bs_-213" edge="1">
          <mxGeometry relative="1" as="geometry">
            <Array as="points">
              <mxPoint x="504.25" y="1440.25" />
              <mxPoint x="368.25" y="1440.25" />
            </Array>
          </mxGeometry>
        </mxCell>
        <mxCell id="W6Eq-dex9__hlxGE6Bs_-222" value="ItemOrderDAO" style="swimlane;fontStyle=0;childLayout=stackLayout;horizontal=1;startSize=26;fillColor=none;horizontalStack=0;resizeParent=1;resizeParentMax=0;resizeLast=0;collapsible=1;marginBottom=0;whiteSpace=wrap;html=1;" parent="WIyWlLk6GJQsqaUBKTNV-1" vertex="1">
          <mxGeometry x="453" y="1460.25" width="251" height="34" as="geometry" />
        </mxCell>
        <mxCell id="W6Eq-dex9__hlxGE6Bs_-223" value="" style="line;strokeWidth=1;fillColor=none;align=left;verticalAlign=middle;spacingTop=-1;spacingLeft=3;spacingRight=3;rotatable=0;labelPosition=right;points=[];portConstraint=eastwest;strokeColor=inherit;" parent="W6Eq-dex9__hlxGE6Bs_-222" vertex="1">
          <mxGeometry y="26" width="251" height="8" as="geometry" />
        </mxCell>
        <mxCell id="W6Eq-dex9__hlxGE6Bs_-224" style="edgeStyle=orthogonalEdgeStyle;rounded=0;orthogonalLoop=1;jettySize=auto;html=1;endArrow=diamondThin;endFill=0;" parent="WIyWlLk6GJQsqaUBKTNV-1" source="W6Eq-dex9__hlxGE6Bs_-225" target="W6Eq-dex9__hlxGE6Bs_-211" edge="1">
          <mxGeometry relative="1" as="geometry">
            <Array as="points">
              <mxPoint x="-131.75" y="1464.25" />
              <mxPoint x="123.25" y="1464.25" />
            </Array>
          </mxGeometry>
        </mxCell>
        <mxCell id="W6Eq-dex9__hlxGE6Bs_-225" value="SiteDAO" style="swimlane;fontStyle=0;childLayout=stackLayout;horizontal=1;startSize=26;fillColor=none;horizontalStack=0;resizeParent=1;resizeParentMax=0;resizeLast=0;collapsible=1;marginBottom=0;whiteSpace=wrap;html=1;" parent="WIyWlLk6GJQsqaUBKTNV-1" vertex="1">
          <mxGeometry x="-230.25" y="1526.5" width="210" height="34" as="geometry" />
        </mxCell>
        <mxCell id="W6Eq-dex9__hlxGE6Bs_-226" value="" style="line;strokeWidth=1;fillColor=none;align=left;verticalAlign=middle;spacingTop=-1;spacingLeft=3;spacingRight=3;rotatable=0;labelPosition=right;points=[];portConstraint=eastwest;strokeColor=inherit;" parent="W6Eq-dex9__hlxGE6Bs_-225" vertex="1">
          <mxGeometry y="26" width="210" height="8" as="geometry" />
        </mxCell>
        <mxCell id="W6Eq-dex9__hlxGE6Bs_-227" style="edgeStyle=orthogonalEdgeStyle;rounded=0;orthogonalLoop=1;jettySize=auto;html=1;exitX=0.5;exitY=0;exitDx=0;exitDy=0;endArrow=diamondThin;endFill=0;" parent="WIyWlLk6GJQsqaUBKTNV-1" source="W6Eq-dex9__hlxGE6Bs_-230" target="W6Eq-dex9__hlxGE6Bs_-212" edge="1">
          <mxGeometry relative="1" as="geometry">
            <Array as="points">
              <mxPoint x="148.25" y="1450.25" />
              <mxPoint x="148.25" y="1450.25" />
            </Array>
          </mxGeometry>
        </mxCell>
        <mxCell id="W6Eq-dex9__hlxGE6Bs_-228" style="edgeStyle=orthogonalEdgeStyle;rounded=0;orthogonalLoop=1;jettySize=auto;html=1;exitX=0.5;exitY=1;exitDx=0;exitDy=0;entryX=0.568;entryY=-0.001;entryDx=0;entryDy=0;entryPerimeter=0;endArrow=diamondThin;endFill=0;" parent="WIyWlLk6GJQsqaUBKTNV-1" source="W6Eq-dex9__hlxGE6Bs_-230" target="W6Eq-dex9__hlxGE6Bs_-237" edge="1">
          <mxGeometry relative="1" as="geometry" />
        </mxCell>
        <mxCell id="W6Eq-dex9__hlxGE6Bs_-229" style="edgeStyle=orthogonalEdgeStyle;rounded=0;orthogonalLoop=1;jettySize=auto;html=1;exitX=0.75;exitY=1;exitDx=0;exitDy=0;entryX=0.369;entryY=0.036;entryDx=0;entryDy=0;entryPerimeter=0;endArrow=diamondThin;endFill=0;" parent="WIyWlLk6GJQsqaUBKTNV-1" source="W6Eq-dex9__hlxGE6Bs_-230" target="W6Eq-dex9__hlxGE6Bs_-216" edge="1">
          <mxGeometry relative="1" as="geometry" />
        </mxCell>
        <mxCell id="W6Eq-dex9__hlxGE6Bs_-230" value="StopDAO" style="swimlane;fontStyle=0;childLayout=stackLayout;horizontal=1;startSize=26;fillColor=none;horizontalStack=0;resizeParent=1;resizeParentMax=0;resizeLast=0;collapsible=1;marginBottom=0;whiteSpace=wrap;html=1;" parent="WIyWlLk6GJQsqaUBKTNV-1" vertex="1">
          <mxGeometry x="4.5" y="1526.5" width="285" height="41.25" as="geometry" />
        </mxCell>
        <mxCell id="W6Eq-dex9__hlxGE6Bs_-231" value="TruckDeliveryDatesDAO" style="swimlane;fontStyle=0;childLayout=stackLayout;horizontal=1;startSize=26;fillColor=none;horizontalStack=0;resizeParent=1;resizeParentMax=0;resizeLast=0;collapsible=1;marginBottom=0;whiteSpace=wrap;html=1;" parent="WIyWlLk6GJQsqaUBKTNV-1" vertex="1">
          <mxGeometry x="-453.25" y="1600.25" width="228.25" height="34" as="geometry" />
        </mxCell>
        <mxCell id="W6Eq-dex9__hlxGE6Bs_-232" value="" style="line;strokeWidth=1;fillColor=none;align=left;verticalAlign=middle;spacingTop=-1;spacingLeft=3;spacingRight=3;rotatable=0;labelPosition=right;points=[];portConstraint=eastwest;strokeColor=inherit;" parent="W6Eq-dex9__hlxGE6Bs_-231" vertex="1">
          <mxGeometry y="26" width="228.25" height="8" as="geometry" />
        </mxCell>
        <mxCell id="W6Eq-dex9__hlxGE6Bs_-233" value="" style="edgeStyle=orthogonalEdgeStyle;rounded=0;orthogonalLoop=1;jettySize=auto;html=1;exitX=0.5;exitY=1;exitDx=0;exitDy=0;entryX=0.5;entryY=0;entryDx=0;entryDy=0;endArrow=none;endFill=0;" parent="WIyWlLk6GJQsqaUBKTNV-1" source="W6Eq-dex9__hlxGE6Bs_-234" target="W6Eq-dex9__hlxGE6Bs_-216" edge="1">
          <mxGeometry relative="1" as="geometry" />
        </mxCell>
        <mxCell id="W6Eq-dex9__hlxGE6Bs_-234" value="A" style="ellipse;whiteSpace=wrap;html=1;aspect=fixed;fontSize=18;" parent="WIyWlLk6GJQsqaUBKTNV-1" vertex="1">
          <mxGeometry x="342.5" y="1514.75" width="45.75" height="45.75" as="geometry" />
        </mxCell>
        <mxCell id="W6Eq-dex9__hlxGE6Bs_-236" style="edgeStyle=orthogonalEdgeStyle;rounded=0;orthogonalLoop=1;jettySize=auto;html=1;endArrow=diamondThin;endFill=0;" parent="WIyWlLk6GJQsqaUBKTNV-1" source="W6Eq-dex9__hlxGE6Bs_-237" target="W6Eq-dex9__hlxGE6Bs_-219" edge="1">
          <mxGeometry relative="1" as="geometry">
            <Array as="points">
              <mxPoint x="-28.75" y="1670.25" />
              <mxPoint x="558.25" y="1670.25" />
            </Array>
          </mxGeometry>
        </mxCell>
        <mxCell id="W6Eq-dex9__hlxGE6Bs_-237" value="StopUnoadItemsDAO" style="swimlane;fontStyle=0;childLayout=stackLayout;horizontal=1;startSize=26;fillColor=none;horizontalStack=0;resizeParent=1;resizeParentMax=0;resizeLast=0;collapsible=1;marginBottom=0;whiteSpace=wrap;html=1;" parent="WIyWlLk6GJQsqaUBKTNV-1" vertex="1">
          <mxGeometry x="-184" y="1620.25" width="310" height="34" as="geometry" />
        </mxCell>
        <mxCell id="W6Eq-dex9__hlxGE6Bs_-238" style="edgeStyle=orthogonalEdgeStyle;rounded=0;orthogonalLoop=1;jettySize=auto;html=1;exitX=0.5;exitY=1;exitDx=0;exitDy=0;entryX=0.5;entryY=0;entryDx=0;entryDy=0;endArrow=diamondThin;endFill=0;" parent="WIyWlLk6GJQsqaUBKTNV-1" source="W6Eq-dex9__hlxGE6Bs_-239" target="W6Eq-dex9__hlxGE6Bs_-231" edge="1">
          <mxGeometry relative="1" as="geometry" />
        </mxCell>
        <mxCell id="W6Eq-dex9__hlxGE6Bs_-239" value="TruckDAO" style="swimlane;fontStyle=0;childLayout=stackLayout;horizontal=1;startSize=26;fillColor=none;horizontalStack=0;resizeParent=1;resizeParentMax=0;resizeLast=0;collapsible=1;marginBottom=0;whiteSpace=wrap;html=1;" parent="WIyWlLk6GJQsqaUBKTNV-1" vertex="1">
          <mxGeometry x="-465" y="1526.5" width="204.75" height="33.75" as="geometry" />
        </mxCell>
        <mxCell id="W6Eq-dex9__hlxGE6Bs_-240" style="edgeStyle=orthogonalEdgeStyle;rounded=0;orthogonalLoop=1;jettySize=auto;html=1;entryX=0.815;entryY=0.031;entryDx=0;entryDy=0;entryPerimeter=0;endArrow=diamondThin;endFill=0;" parent="WIyWlLk6GJQsqaUBKTNV-1" source="W6Eq-dex9__hlxGE6Bs_-241" target="W6Eq-dex9__hlxGE6Bs_-222" edge="1">
          <mxGeometry relative="1" as="geometry" />
        </mxCell>
        <mxCell id="W6Eq-dex9__hlxGE6Bs_-241" value="A" style="ellipse;whiteSpace=wrap;html=1;aspect=fixed;fontSize=18;" parent="WIyWlLk6GJQsqaUBKTNV-1" vertex="1">
          <mxGeometry x="658.25" y="1382.12" width="48.13" height="48.13" as="geometry" />
        </mxCell>
        <mxCell id="W6Eq-dex9__hlxGE6Bs_-242" style="edgeStyle=orthogonalEdgeStyle;rounded=0;orthogonalLoop=1;jettySize=auto;html=1;entryX=0.886;entryY=0.014;entryDx=0;entryDy=0;entryPerimeter=0;endArrow=diamondThin;endFill=0;" parent="WIyWlLk6GJQsqaUBKTNV-1" source="W6Eq-dex9__hlxGE6Bs_-243" target="W6Eq-dex9__hlxGE6Bs_-219" edge="1">
          <mxGeometry relative="1" as="geometry" />
        </mxCell>
        <mxCell id="W6Eq-dex9__hlxGE6Bs_-243" value="A" style="ellipse;whiteSpace=wrap;html=1;aspect=fixed;fontSize=18;" parent="WIyWlLk6GJQsqaUBKTNV-1" vertex="1">
          <mxGeometry x="679.1200000000008" y="1630.25" width="45.75" height="45.75" as="geometry" />
        </mxCell>
        <mxCell id="W6Eq-dex9__hlxGE6Bs_-244" style="edgeStyle=orthogonalEdgeStyle;rounded=0;orthogonalLoop=1;jettySize=auto;html=1;entryX=0.667;entryY=-0.005;entryDx=0;entryDy=0;entryPerimeter=0;endArrow=diamondThin;endFill=0;" parent="WIyWlLk6GJQsqaUBKTNV-1" source="W6Eq-dex9__hlxGE6Bs_-245" target="W6Eq-dex9__hlxGE6Bs_-230" edge="1">
          <mxGeometry relative="1" as="geometry">
            <Array as="points">
              <mxPoint x="230" y="1510" />
              <mxPoint x="195" y="1510" />
            </Array>
          </mxGeometry>
        </mxCell>
        <mxCell id="W6Eq-dex9__hlxGE6Bs_-245" value="A" style="ellipse;whiteSpace=wrap;html=1;aspect=fixed;fontSize=18;" parent="WIyWlLk6GJQsqaUBKTNV-1" vertex="1">
          <mxGeometry x="207.5" y="1454.38" width="45.75" height="45.75" as="geometry" />
        </mxCell>
        <mxCell id="W6Eq-dex9__hlxGE6Bs_-246" style="edgeStyle=orthogonalEdgeStyle;rounded=0;orthogonalLoop=1;jettySize=auto;html=1;entryX=0.25;entryY=0;entryDx=0;entryDy=0;endArrow=diamondThin;endFill=0;" parent="WIyWlLk6GJQsqaUBKTNV-1" source="W6Eq-dex9__hlxGE6Bs_-247" target="W6Eq-dex9__hlxGE6Bs_-225" edge="1">
          <mxGeometry relative="1" as="geometry">
            <Array as="points">
              <mxPoint x="-178" y="1480" />
              <mxPoint x="-178" y="1480" />
            </Array>
          </mxGeometry>
        </mxCell>
        <mxCell id="W6Eq-dex9__hlxGE6Bs_-247" value="A" style="ellipse;whiteSpace=wrap;html=1;aspect=fixed;fontSize=18;" parent="WIyWlLk6GJQsqaUBKTNV-1" vertex="1">
          <mxGeometry x="-199.75" y="1454.38" width="45.75" height="45.75" as="geometry" />
        </mxCell>
        <mxCell id="W6Eq-dex9__hlxGE6Bs_-248" style="edgeStyle=orthogonalEdgeStyle;rounded=0;orthogonalLoop=1;jettySize=auto;html=1;endArrow=diamondThin;endFill=0;" parent="WIyWlLk6GJQsqaUBKTNV-1" source="W6Eq-dex9__hlxGE6Bs_-249" target="W6Eq-dex9__hlxGE6Bs_-239" edge="1">
          <mxGeometry relative="1" as="geometry" />
        </mxCell>
        <mxCell id="W6Eq-dex9__hlxGE6Bs_-249" value="A" style="ellipse;whiteSpace=wrap;html=1;aspect=fixed;fontSize=18;" parent="WIyWlLk6GJQsqaUBKTNV-1" vertex="1">
          <mxGeometry x="-385.5" y="1448.5" width="45.75" height="45.75" as="geometry" />
        </mxCell>
        <mxCell id="W6Eq-dex9__hlxGE6Bs_-250" style="edgeStyle=orthogonalEdgeStyle;rounded=0;orthogonalLoop=1;jettySize=auto;html=1;entryX=0.41;entryY=0.026;entryDx=0;entryDy=0;entryPerimeter=0;endArrow=diamondThin;endFill=0;" parent="WIyWlLk6GJQsqaUBKTNV-1" source="W6Eq-dex9__hlxGE6Bs_-251" target="W6Eq-dex9__hlxGE6Bs_-237" edge="1">
          <mxGeometry relative="1" as="geometry">
            <Array as="points">
              <mxPoint x="-112.75" y="1610.25" />
              <mxPoint x="-56.75" y="1610.25" />
            </Array>
          </mxGeometry>
        </mxCell>
        <mxCell id="W6Eq-dex9__hlxGE6Bs_-251" value="A" style="ellipse;whiteSpace=wrap;html=1;aspect=fixed;fontSize=18;" parent="WIyWlLk6GJQsqaUBKTNV-1" vertex="1">
          <mxGeometry x="-136" y="1562.25" width="45.75" height="45.75" as="geometry" />
        </mxCell>
        <mxCell id="W6Eq-dex9__hlxGE6Bs_-253" style="edgeStyle=orthogonalEdgeStyle;rounded=0;orthogonalLoop=1;jettySize=auto;html=1;entryX=0.5;entryY=0;entryDx=0;entryDy=0;endArrow=diamondThin;endFill=0;" parent="WIyWlLk6GJQsqaUBKTNV-1" source="W6Eq-dex9__hlxGE6Bs_-252" target="W6Eq-dex9__hlxGE6Bs_-211" edge="1">
          <mxGeometry relative="1" as="geometry" />
        </mxCell>
        <mxCell id="W6Eq-dex9__hlxGE6Bs_-252" value="A" style="ellipse;whiteSpace=wrap;html=1;aspect=fixed;fontSize=18;" parent="WIyWlLk6GJQsqaUBKTNV-1" vertex="1">
          <mxGeometry x="99.17999999999995" y="1320" width="48.13" height="48.13" as="geometry" />
        </mxCell>
        <mxCell id="W6Eq-dex9__hlxGE6Bs_-258" style="edgeStyle=orthogonalEdgeStyle;rounded=0;orthogonalLoop=1;jettySize=auto;html=1;entryX=0.5;entryY=0;entryDx=0;entryDy=0;endArrow=diamondThin;endFill=0;" parent="WIyWlLk6GJQsqaUBKTNV-1" source="W6Eq-dex9__hlxGE6Bs_-256" target="W6Eq-dex9__hlxGE6Bs_-257" edge="1">
          <mxGeometry relative="1" as="geometry" />
        </mxCell>
        <mxCell id="W6Eq-dex9__hlxGE6Bs_-256" value="dalFacade: DALFacade" style="swimlane;fontStyle=0;align=center;verticalAlign=top;childLayout=stackLayout;horizontal=1;startSize=26;horizontalStack=0;resizeParent=1;resizeLast=0;collapsible=1;marginBottom=0;rounded=0;shadow=0;strokeWidth=1;" parent="WIyWlLk6GJQsqaUBKTNV-1" vertex="1">
          <mxGeometry x="-341.75" y="1210" width="260" height="30" as="geometry">
            <mxRectangle x="10" y="780" width="160" height="26" as="alternateBounds" />
          </mxGeometry>
        </mxCell>
        <mxCell id="W6Eq-dex9__hlxGE6Bs_-257" value="A" style="ellipse;whiteSpace=wrap;html=1;aspect=fixed;fontSize=18;" parent="WIyWlLk6GJQsqaUBKTNV-1" vertex="1">
          <mxGeometry x="-235.82000000000005" y="1260" width="48.13" height="48.13" as="geometry" />
        </mxCell>
        <mxCell id="W6Eq-dex9__hlxGE6Bs_-260" style="edgeStyle=orthogonalEdgeStyle;rounded=0;orthogonalLoop=1;jettySize=auto;html=1;entryX=0.803;entryY=0.012;entryDx=0;entryDy=0;entryPerimeter=0;endArrow=diamondThin;endFill=0;" parent="WIyWlLk6GJQsqaUBKTNV-1" source="W6Eq-dex9__hlxGE6Bs_-259" target="W6Eq-dex9__hlxGE6Bs_-210" edge="1">
          <mxGeometry relative="1" as="geometry" />
        </mxCell>
        <mxCell id="W6Eq-dex9__hlxGE6Bs_-259" value="A" style="ellipse;whiteSpace=wrap;html=1;aspect=fixed;fontSize=18;" parent="WIyWlLk6GJQsqaUBKTNV-1" vertex="1">
          <mxGeometry x="-154.00000000000006" y="1260" width="48.13" height="48.13" as="geometry" />
        </mxCell>
        <mxCell id="W6Eq-dex9__hlxGE6Bs_-262" style="edgeStyle=orthogonalEdgeStyle;rounded=0;orthogonalLoop=1;jettySize=auto;html=1;entryX=0.541;entryY=0.055;entryDx=0;entryDy=0;entryPerimeter=0;endArrow=diamondThin;endFill=0;" parent="WIyWlLk6GJQsqaUBKTNV-1" source="W6Eq-dex9__hlxGE6Bs_-261" target="W6Eq-dex9__hlxGE6Bs_-213" edge="1">
          <mxGeometry relative="1" as="geometry" />
        </mxCell>
        <mxCell id="W6Eq-dex9__hlxGE6Bs_-261" value="A" style="ellipse;whiteSpace=wrap;html=1;aspect=fixed;fontSize=18;" parent="WIyWlLk6GJQsqaUBKTNV-1" vertex="1">
          <mxGeometry x="456.99999999999994" y="1308.13" width="48.13" height="48.13" as="geometry" />
        </mxCell>
        <mxCell id="FsEV9OsQ5VGh3jvW_iLM-191" value="Branch" style="swimlane;fontStyle=0;childLayout=stackLayout;horizontal=1;startSize=26;fillColor=none;horizontalStack=0;resizeParent=1;resizeParentMax=0;resizeLast=0;collapsible=1;marginBottom=0;whiteSpace=wrap;html=1;" parent="WIyWlLk6GJQsqaUBKTNV-1" vertex="1">
          <mxGeometry x="-326" y="120" width="190" height="156" as="geometry" />
        </mxCell>
        <mxCell id="FsEV9OsQ5VGh3jvW_iLM-192" value="branchName: Tel Aviv" style="text;strokeColor=none;fillColor=none;align=left;verticalAlign=top;spacingLeft=4;spacingRight=4;overflow=hidden;rotatable=0;points=[[0,0.5],[1,0.5]];portConstraint=eastwest;whiteSpace=wrap;html=1;" parent="FsEV9OsQ5VGh3jvW_iLM-191" vertex="1">
          <mxGeometry y="26" width="190" height="26" as="geometry" />
        </mxCell>
        <mxCell id="FsEV9OsQ5VGh3jvW_iLM-193" value="morningShiftStartHour: 08:00" style="text;strokeColor=none;fillColor=none;align=left;verticalAlign=top;spacingLeft=4;spacingRight=4;overflow=hidden;rotatable=0;points=[[0,0.5],[1,0.5]];portConstraint=eastwest;whiteSpace=wrap;html=1;" parent="FsEV9OsQ5VGh3jvW_iLM-191" vertex="1">
          <mxGeometry y="52" width="190" height="26" as="geometry" />
        </mxCell>
        <mxCell id="FsEV9OsQ5VGh3jvW_iLM-194" value="morningShiftEndHour: 15:00" style="text;strokeColor=none;fillColor=none;align=left;verticalAlign=top;spacingLeft=4;spacingRight=4;overflow=hidden;rotatable=0;points=[[0,0.5],[1,0.5]];portConstraint=eastwest;whiteSpace=wrap;html=1;" parent="FsEV9OsQ5VGh3jvW_iLM-191" vertex="1">
          <mxGeometry y="78" width="190" height="26" as="geometry" />
        </mxCell>
        <mxCell id="FsEV9OsQ5VGh3jvW_iLM-195" value="eveningShiftStartHour: 15:00" style="text;strokeColor=none;fillColor=none;align=left;verticalAlign=top;spacingLeft=4;spacingRight=4;overflow=hidden;rotatable=0;points=[[0,0.5],[1,0.5]];portConstraint=eastwest;whiteSpace=wrap;html=1;" parent="FsEV9OsQ5VGh3jvW_iLM-191" vertex="1">
          <mxGeometry y="104" width="190" height="26" as="geometry" />
        </mxCell>
        <mxCell id="FsEV9OsQ5VGh3jvW_iLM-196" value="eveningShiftEndHour: 22:00" style="text;strokeColor=none;fillColor=none;align=left;verticalAlign=top;spacingLeft=4;spacingRight=4;overflow=hidden;rotatable=0;points=[[0,0.5],[1,0.5]];portConstraint=eastwest;whiteSpace=wrap;html=1;" parent="FsEV9OsQ5VGh3jvW_iLM-191" vertex="1">
          <mxGeometry y="130" width="190" height="26" as="geometry" />
        </mxCell>
        <mxCell id="FsEV9OsQ5VGh3jvW_iLM-197" style="edgeStyle=orthogonalEdgeStyle;rounded=0;orthogonalLoop=1;jettySize=auto;html=1;exitX=0.5;exitY=0;exitDx=0;exitDy=0;entryX=0.5;entryY=1;entryDx=0;entryDy=0;endArrow=block;endFill=0;" parent="WIyWlLk6GJQsqaUBKTNV-1" source="FsEV9OsQ5VGh3jvW_iLM-199" target="FsEV9OsQ5VGh3jvW_iLM-201" edge="1">
          <mxGeometry relative="1" as="geometry" />
        </mxCell>
        <mxCell id="FsEV9OsQ5VGh3jvW_iLM-198" value="has" style="edgeStyle=orthogonalEdgeStyle;rounded=0;orthogonalLoop=1;jettySize=auto;html=1;" parent="WIyWlLk6GJQsqaUBKTNV-1" edge="1">
          <mxGeometry relative="1" as="geometry">
            <mxPoint x="-71.51724137931029" y="724" as="sourcePoint" />
            <mxPoint x="-64.96551724137913" y="762" as="targetPoint" />
          </mxGeometry>
        </mxCell>
        <mxCell id="FsEV9OsQ5VGh3jvW_iLM-199" value="DriverShift" style="swimlane;fontStyle=0;childLayout=stackLayout;horizontal=1;startSize=26;fillColor=none;horizontalStack=0;resizeParent=1;resizeParentMax=0;resizeLast=0;collapsible=1;marginBottom=0;whiteSpace=wrap;html=1;" parent="WIyWlLk6GJQsqaUBKTNV-1" vertex="1">
          <mxGeometry x="-126.50000000000006" y="672" width="110" height="52" as="geometry" />
        </mxCell>
        <mxCell id="FsEV9OsQ5VGh3jvW_iLM-200" value="driversCount: 1" style="text;strokeColor=none;fillColor=none;align=left;verticalAlign=top;spacingLeft=4;spacingRight=4;overflow=hidden;rotatable=0;points=[[0,0.5],[1,0.5]];portConstraint=eastwest;whiteSpace=wrap;html=1;" parent="FsEV9OsQ5VGh3jvW_iLM-199" vertex="1">
          <mxGeometry y="26" width="110" height="26" as="geometry" />
        </mxCell>
        <mxCell id="FsEV9OsQ5VGh3jvW_iLM-201" value="Shift" style="swimlane;fontStyle=0;childLayout=stackLayout;horizontal=1;startSize=26;fillColor=none;horizontalStack=0;resizeParent=1;resizeParentMax=0;resizeLast=0;collapsible=1;marginBottom=0;whiteSpace=wrap;html=1;" parent="WIyWlLk6GJQsqaUBKTNV-1" vertex="1">
          <mxGeometry x="-126.50000000000006" y="560" width="110" height="78" as="geometry" />
        </mxCell>
        <mxCell id="FsEV9OsQ5VGh3jvW_iLM-202" value="id: 152" style="text;strokeColor=none;fillColor=none;align=left;verticalAlign=top;spacingLeft=4;spacingRight=4;overflow=hidden;rotatable=0;points=[[0,0.5],[1,0.5]];portConstraint=eastwest;whiteSpace=wrap;html=1;" parent="FsEV9OsQ5VGh3jvW_iLM-201" vertex="1">
          <mxGeometry y="26" width="110" height="26" as="geometry" />
        </mxCell>
        <mxCell id="FsEV9OsQ5VGh3jvW_iLM-203" value="date: 31/12/2022" style="text;strokeColor=none;fillColor=none;align=left;verticalAlign=top;spacingLeft=4;spacingRight=4;overflow=hidden;rotatable=0;points=[[0,0.5],[1,0.5]];portConstraint=eastwest;whiteSpace=wrap;html=1;" parent="FsEV9OsQ5VGh3jvW_iLM-201" vertex="1">
          <mxGeometry y="52" width="110" height="26" as="geometry" />
        </mxCell>
        <mxCell id="FsEV9OsQ5VGh3jvW_iLM-204" value="Employee" style="swimlane;fontStyle=0;childLayout=stackLayout;horizontal=1;startSize=26;fillColor=none;horizontalStack=0;resizeParent=1;resizeParentMax=0;resizeLast=0;collapsible=1;marginBottom=0;whiteSpace=wrap;html=1;" parent="WIyWlLk6GJQsqaUBKTNV-1" vertex="1">
          <mxGeometry x="-160.00000000000006" y="762" width="190" height="364" as="geometry" />
        </mxCell>
        <mxCell id="FsEV9OsQ5VGh3jvW_iLM-205" value="employee: 483546378" style="text;strokeColor=none;fillColor=none;align=left;verticalAlign=top;spacingLeft=4;spacingRight=4;overflow=hidden;rotatable=0;points=[[0,0.5],[1,0.5]];portConstraint=eastwest;whiteSpace=wrap;html=1;" parent="FsEV9OsQ5VGh3jvW_iLM-204" vertex="1">
          <mxGeometry y="26" width="190" height="26" as="geometry" />
        </mxCell>
        <mxCell id="FsEV9OsQ5VGh3jvW_iLM-206" value="firstName: Itay" style="text;strokeColor=none;fillColor=none;align=left;verticalAlign=top;spacingLeft=4;spacingRight=4;overflow=hidden;rotatable=0;points=[[0,0.5],[1,0.5]];portConstraint=eastwest;whiteSpace=wrap;html=1;" parent="FsEV9OsQ5VGh3jvW_iLM-204" vertex="1">
          <mxGeometry y="52" width="190" height="26" as="geometry" />
        </mxCell>
        <mxCell id="FsEV9OsQ5VGh3jvW_iLM-207" value="lastName: Levi" style="text;strokeColor=none;fillColor=none;align=left;verticalAlign=top;spacingLeft=4;spacingRight=4;overflow=hidden;rotatable=0;points=[[0,0.5],[1,0.5]];portConstraint=eastwest;whiteSpace=wrap;html=1;" parent="FsEV9OsQ5VGh3jvW_iLM-204" vertex="1">
          <mxGeometry y="78" width="190" height="26" as="geometry" />
        </mxCell>
        <mxCell id="FsEV9OsQ5VGh3jvW_iLM-208" value="password: Ts748394" style="text;strokeColor=none;fillColor=none;align=left;verticalAlign=top;spacingLeft=4;spacingRight=4;overflow=hidden;rotatable=0;points=[[0,0.5],[1,0.5]];portConstraint=eastwest;whiteSpace=wrap;html=1;" parent="FsEV9OsQ5VGh3jvW_iLM-204" vertex="1">
          <mxGeometry y="104" width="190" height="26" as="geometry" />
        </mxCell>
        <mxCell id="FsEV9OsQ5VGh3jvW_iLM-209" value="accountNumber: 8352649" style="text;strokeColor=none;fillColor=none;align=left;verticalAlign=top;spacingLeft=4;spacingRight=4;overflow=hidden;rotatable=0;points=[[0,0.5],[1,0.5]];portConstraint=eastwest;whiteSpace=wrap;html=1;" parent="FsEV9OsQ5VGh3jvW_iLM-204" vertex="1">
          <mxGeometry y="130" width="190" height="26" as="geometry" />
        </mxCell>
        <mxCell id="FsEV9OsQ5VGh3jvW_iLM-210" value="branchBankNumber: 52" style="text;strokeColor=none;fillColor=none;align=left;verticalAlign=top;spacingLeft=4;spacingRight=4;overflow=hidden;rotatable=0;points=[[0,0.5],[1,0.5]];portConstraint=eastwest;whiteSpace=wrap;html=1;" parent="FsEV9OsQ5VGh3jvW_iLM-204" vertex="1">
          <mxGeometry y="156" width="190" height="26" as="geometry" />
        </mxCell>
        <mxCell id="FsEV9OsQ5VGh3jvW_iLM-211" value="salary: 30" style="text;strokeColor=none;fillColor=none;align=left;verticalAlign=top;spacingLeft=4;spacingRight=4;overflow=hidden;rotatable=0;points=[[0,0.5],[1,0.5]];portConstraint=eastwest;whiteSpace=wrap;html=1;" parent="FsEV9OsQ5VGh3jvW_iLM-204" vertex="1">
          <mxGeometry y="182" width="190" height="26" as="geometry" />
        </mxCell>
        <mxCell id="FsEV9OsQ5VGh3jvW_iLM-212" value="termsOfEmployment: &quot;...&quot;" style="text;strokeColor=none;fillColor=none;align=left;verticalAlign=top;spacingLeft=4;spacingRight=4;overflow=hidden;rotatable=0;points=[[0,0.5],[1,0.5]];portConstraint=eastwest;whiteSpace=wrap;html=1;" parent="FsEV9OsQ5VGh3jvW_iLM-204" vertex="1">
          <mxGeometry y="208" width="190" height="26" as="geometry" />
        </mxCell>
        <mxCell id="FsEV9OsQ5VGh3jvW_iLM-213" value="statusOfEmployee: single" style="text;strokeColor=none;fillColor=none;align=left;verticalAlign=top;spacingLeft=4;spacingRight=4;overflow=hidden;rotatable=0;points=[[0,0.5],[1,0.5]];portConstraint=eastwest;whiteSpace=wrap;html=1;" parent="FsEV9OsQ5VGh3jvW_iLM-204" vertex="1">
          <mxGeometry y="234" width="190" height="26" as="geometry" />
        </mxCell>
        <mxCell id="FsEV9OsQ5VGh3jvW_iLM-214" value="phoneNumber: 0546677221" style="text;strokeColor=none;fillColor=none;align=left;verticalAlign=top;spacingLeft=4;spacingRight=4;overflow=hidden;rotatable=0;points=[[0,0.5],[1,0.5]];portConstraint=eastwest;whiteSpace=wrap;html=1;" parent="FsEV9OsQ5VGh3jvW_iLM-204" vertex="1">
          <mxGeometry y="260" width="190" height="26" as="geometry" />
        </mxCell>
        <mxCell id="FsEV9OsQ5VGh3jvW_iLM-215" value="RoleType: DRIVER" style="text;strokeColor=none;fillColor=none;align=left;verticalAlign=top;spacingLeft=4;spacingRight=4;overflow=hidden;rotatable=0;points=[[0,0.5],[1,0.5]];portConstraint=eastwest;whiteSpace=wrap;html=1;" parent="FsEV9OsQ5VGh3jvW_iLM-204" vertex="1">
          <mxGeometry y="286" width="190" height="26" as="geometry" />
        </mxCell>
        <mxCell id="FsEV9OsQ5VGh3jvW_iLM-216" value="hireDate: 07/07/2022" style="text;strokeColor=none;fillColor=none;align=left;verticalAlign=top;spacingLeft=4;spacingRight=4;overflow=hidden;rotatable=0;points=[[0,0.5],[1,0.5]];portConstraint=eastwest;whiteSpace=wrap;html=1;" parent="FsEV9OsQ5VGh3jvW_iLM-204" vertex="1">
          <mxGeometry y="312" width="190" height="26" as="geometry" />
        </mxCell>
        <mxCell id="FsEV9OsQ5VGh3jvW_iLM-217" value="isLogged: false" style="text;strokeColor=none;fillColor=none;align=left;verticalAlign=top;spacingLeft=4;spacingRight=4;overflow=hidden;rotatable=0;points=[[0,0.5],[1,0.5]];portConstraint=eastwest;whiteSpace=wrap;html=1;" parent="FsEV9OsQ5VGh3jvW_iLM-204" vertex="1">
          <mxGeometry y="338" width="190" height="26" as="geometry" />
        </mxCell>
        <mxCell id="FsEV9OsQ5VGh3jvW_iLM-218" style="edgeStyle=orthogonalEdgeStyle;rounded=0;orthogonalLoop=1;jettySize=auto;html=1;entryX=1;entryY=0.192;entryDx=0;entryDy=0;entryPerimeter=0;endArrow=block;endFill=0;" parent="WIyWlLk6GJQsqaUBKTNV-1" source="FsEV9OsQ5VGh3jvW_iLM-219" edge="1">
          <mxGeometry relative="1" as="geometry">
            <mxPoint x="29.999999999999943" y="1086" as="targetPoint" />
            <Array as="points">
              <mxPoint x="60.99999999999994" y="1086" />
              <mxPoint x="60.99999999999994" y="1087" />
            </Array>
          </mxGeometry>
        </mxCell>
        <mxCell id="FsEV9OsQ5VGh3jvW_iLM-219" value="Driver" style="swimlane;fontStyle=0;childLayout=stackLayout;horizontal=1;startSize=26;fillColor=none;horizontalStack=0;resizeParent=1;resizeParentMax=0;resizeLast=0;collapsible=1;marginBottom=0;whiteSpace=wrap;html=1;" parent="WIyWlLk6GJQsqaUBKTNV-1" vertex="1">
          <mxGeometry x="89.99999999999994" y="1040" width="110" height="104" as="geometry" />
        </mxCell>
        <mxCell id="FsEV9OsQ5VGh3jvW_iLM-220" value="licenses: 30000" style="text;strokeColor=none;fillColor=none;align=left;verticalAlign=top;spacingLeft=4;spacingRight=4;overflow=hidden;rotatable=0;points=[[0,0.5],[1,0.5]];portConstraint=eastwest;whiteSpace=wrap;html=1;" parent="FsEV9OsQ5VGh3jvW_iLM-219" vertex="1">
          <mxGeometry y="26" width="110" height="26" as="geometry" />
        </mxCell>
        <mxCell id="FsEV9OsQ5VGh3jvW_iLM-243" value="deliveryDates: []" style="text;strokeColor=none;fillColor=none;align=left;verticalAlign=top;spacingLeft=4;spacingRight=4;overflow=hidden;rotatable=0;points=[[0,0.5],[1,0.5]];portConstraint=eastwest;whiteSpace=wrap;html=1;" parent="FsEV9OsQ5VGh3jvW_iLM-219" vertex="1">
          <mxGeometry y="52" width="110" height="26" as="geometry" />
        </mxCell>
        <mxCell id="FsEV9OsQ5VGh3jvW_iLM-244" value="qualifications: []" style="text;strokeColor=none;fillColor=none;align=left;verticalAlign=top;spacingLeft=4;spacingRight=4;overflow=hidden;rotatable=0;points=[[0,0.5],[1,0.5]];portConstraint=eastwest;whiteSpace=wrap;html=1;" parent="FsEV9OsQ5VGh3jvW_iLM-219" vertex="1">
          <mxGeometry y="78" width="110" height="26" as="geometry" />
        </mxCell>
        <mxCell id="FsEV9OsQ5VGh3jvW_iLM-234" value="Shift" style="swimlane;fontStyle=0;childLayout=stackLayout;horizontal=1;startSize=26;fillColor=none;horizontalStack=0;resizeParent=1;resizeParentMax=0;resizeLast=0;collapsible=1;marginBottom=0;whiteSpace=wrap;html=1;" parent="WIyWlLk6GJQsqaUBKTNV-1" vertex="1">
          <mxGeometry x="-150" y="320" width="110" height="78" as="geometry" />
        </mxCell>
        <mxCell id="FsEV9OsQ5VGh3jvW_iLM-235" value="id: 150" style="text;strokeColor=none;fillColor=none;align=left;verticalAlign=top;spacingLeft=4;spacingRight=4;overflow=hidden;rotatable=0;points=[[0,0.5],[1,0.5]];portConstraint=eastwest;whiteSpace=wrap;html=1;" parent="FsEV9OsQ5VGh3jvW_iLM-234" vertex="1">
          <mxGeometry y="26" width="110" height="26" as="geometry" />
        </mxCell>
        <mxCell id="FsEV9OsQ5VGh3jvW_iLM-236" value="date: 31/12/2022" style="text;strokeColor=none;fillColor=none;align=left;verticalAlign=top;spacingLeft=4;spacingRight=4;overflow=hidden;rotatable=0;points=[[0,0.5],[1,0.5]];portConstraint=eastwest;whiteSpace=wrap;html=1;" parent="FsEV9OsQ5VGh3jvW_iLM-234" vertex="1">
          <mxGeometry y="52" width="110" height="26" as="geometry" />
        </mxCell>
        <mxCell id="FsEV9OsQ5VGh3jvW_iLM-237" style="edgeStyle=orthogonalEdgeStyle;rounded=0;orthogonalLoop=1;jettySize=auto;html=1;exitX=0.5;exitY=0;exitDx=0;exitDy=0;entryX=0.503;entryY=0.964;entryDx=0;entryDy=0;entryPerimeter=0;endArrow=block;endFill=0;" parent="WIyWlLk6GJQsqaUBKTNV-1" source="FsEV9OsQ5VGh3jvW_iLM-238" target="FsEV9OsQ5VGh3jvW_iLM-236" edge="1">
          <mxGeometry relative="1" as="geometry">
            <Array as="points">
              <mxPoint x="-271" y="410" />
              <mxPoint x="-95" y="410" />
            </Array>
          </mxGeometry>
        </mxCell>
        <mxCell id="FsEV9OsQ5VGh3jvW_iLM-238" value="BranchShift" style="swimlane;fontStyle=0;childLayout=stackLayout;horizontal=1;startSize=26;fillColor=none;horizontalStack=0;resizeParent=1;resizeParentMax=0;resizeLast=0;collapsible=1;marginBottom=0;whiteSpace=wrap;html=1;" parent="WIyWlLk6GJQsqaUBKTNV-1" vertex="1">
          <mxGeometry x="-326" y="430" width="110" height="78" as="geometry" />
        </mxCell>
        <mxCell id="FsEV9OsQ5VGh3jvW_iLM-239" value="branch: Tel Aviv" style="text;strokeColor=none;fillColor=none;align=left;verticalAlign=top;spacingLeft=4;spacingRight=4;overflow=hidden;rotatable=0;points=[[0,0.5],[1,0.5]];portConstraint=eastwest;whiteSpace=wrap;html=1;" parent="FsEV9OsQ5VGh3jvW_iLM-238" vertex="1">
          <mxGeometry y="26" width="110" height="26" as="geometry" />
        </mxCell>
        <mxCell id="FsEV9OsQ5VGh3jvW_iLM-240" value="typeBS: E" style="text;strokeColor=none;fillColor=none;align=left;verticalAlign=top;spacingLeft=4;spacingRight=4;overflow=hidden;rotatable=0;points=[[0,0.5],[1,0.5]];portConstraint=eastwest;whiteSpace=wrap;html=1;" parent="FsEV9OsQ5VGh3jvW_iLM-238" vertex="1">
          <mxGeometry y="52" width="110" height="26" as="geometry" />
        </mxCell>
        <mxCell id="FsEV9OsQ5VGh3jvW_iLM-242" value="has" style="rounded=0;orthogonalLoop=1;jettySize=auto;html=1;exitX=0.25;exitY=0;exitDx=0;exitDy=0;endArrow=none;endFill=0;entryX=0.137;entryY=1;entryDx=0;entryDy=0;entryPerimeter=0;" parent="WIyWlLk6GJQsqaUBKTNV-1" source="FsEV9OsQ5VGh3jvW_iLM-238" target="FsEV9OsQ5VGh3jvW_iLM-196" edge="1">
          <mxGeometry x="-0.1536" relative="1" as="geometry">
            <mxPoint as="offset" />
            <mxPoint x="-270" y="280" as="targetPoint" />
          </mxGeometry>
        </mxCell>
        <mxCell id="FsEV9OsQ5VGh3jvW_iLM-259" value="Employee" style="swimlane;fontStyle=0;childLayout=stackLayout;horizontal=1;startSize=26;fillColor=none;horizontalStack=0;resizeParent=1;resizeParentMax=0;resizeLast=0;collapsible=1;marginBottom=0;whiteSpace=wrap;html=1;" parent="WIyWlLk6GJQsqaUBKTNV-1" vertex="1">
          <mxGeometry x="-487.5" y="567" width="190" height="364" as="geometry" />
        </mxCell>
        <mxCell id="FsEV9OsQ5VGh3jvW_iLM-260" value="employee: 205312109" style="text;strokeColor=none;fillColor=none;align=left;verticalAlign=top;spacingLeft=4;spacingRight=4;overflow=hidden;rotatable=0;points=[[0,0.5],[1,0.5]];portConstraint=eastwest;whiteSpace=wrap;html=1;" parent="FsEV9OsQ5VGh3jvW_iLM-259" vertex="1">
          <mxGeometry y="26" width="190" height="26" as="geometry" />
        </mxCell>
        <mxCell id="FsEV9OsQ5VGh3jvW_iLM-261" value="firstName: Assi" style="text;strokeColor=none;fillColor=none;align=left;verticalAlign=top;spacingLeft=4;spacingRight=4;overflow=hidden;rotatable=0;points=[[0,0.5],[1,0.5]];portConstraint=eastwest;whiteSpace=wrap;html=1;" parent="FsEV9OsQ5VGh3jvW_iLM-259" vertex="1">
          <mxGeometry y="52" width="190" height="26" as="geometry" />
        </mxCell>
        <mxCell id="FsEV9OsQ5VGh3jvW_iLM-262" value="lastName: Azar" style="text;strokeColor=none;fillColor=none;align=left;verticalAlign=top;spacingLeft=4;spacingRight=4;overflow=hidden;rotatable=0;points=[[0,0.5],[1,0.5]];portConstraint=eastwest;whiteSpace=wrap;html=1;" parent="FsEV9OsQ5VGh3jvW_iLM-259" vertex="1">
          <mxGeometry y="78" width="190" height="26" as="geometry" />
        </mxCell>
        <mxCell id="FsEV9OsQ5VGh3jvW_iLM-263" value="password: Do364758" style="text;strokeColor=none;fillColor=none;align=left;verticalAlign=top;spacingLeft=4;spacingRight=4;overflow=hidden;rotatable=0;points=[[0,0.5],[1,0.5]];portConstraint=eastwest;whiteSpace=wrap;html=1;" parent="FsEV9OsQ5VGh3jvW_iLM-259" vertex="1">
          <mxGeometry y="104" width="190" height="26" as="geometry" />
        </mxCell>
        <mxCell id="FsEV9OsQ5VGh3jvW_iLM-264" value="accountNumber: 5010159" style="text;strokeColor=none;fillColor=none;align=left;verticalAlign=top;spacingLeft=4;spacingRight=4;overflow=hidden;rotatable=0;points=[[0,0.5],[1,0.5]];portConstraint=eastwest;whiteSpace=wrap;html=1;" parent="FsEV9OsQ5VGh3jvW_iLM-259" vertex="1">
          <mxGeometry y="130" width="190" height="26" as="geometry" />
        </mxCell>
        <mxCell id="FsEV9OsQ5VGh3jvW_iLM-265" value="branchBankNumber: 32" style="text;strokeColor=none;fillColor=none;align=left;verticalAlign=top;spacingLeft=4;spacingRight=4;overflow=hidden;rotatable=0;points=[[0,0.5],[1,0.5]];portConstraint=eastwest;whiteSpace=wrap;html=1;" parent="FsEV9OsQ5VGh3jvW_iLM-259" vertex="1">
          <mxGeometry y="156" width="190" height="26" as="geometry" />
        </mxCell>
        <mxCell id="FsEV9OsQ5VGh3jvW_iLM-266" value="salary: 40" style="text;strokeColor=none;fillColor=none;align=left;verticalAlign=top;spacingLeft=4;spacingRight=4;overflow=hidden;rotatable=0;points=[[0,0.5],[1,0.5]];portConstraint=eastwest;whiteSpace=wrap;html=1;" parent="FsEV9OsQ5VGh3jvW_iLM-259" vertex="1">
          <mxGeometry y="182" width="190" height="26" as="geometry" />
        </mxCell>
        <mxCell id="FsEV9OsQ5VGh3jvW_iLM-267" value="termsOfEmployment: &quot;...&quot;" style="text;strokeColor=none;fillColor=none;align=left;verticalAlign=top;spacingLeft=4;spacingRight=4;overflow=hidden;rotatable=0;points=[[0,0.5],[1,0.5]];portConstraint=eastwest;whiteSpace=wrap;html=1;" parent="FsEV9OsQ5VGh3jvW_iLM-259" vertex="1">
          <mxGeometry y="208" width="190" height="26" as="geometry" />
        </mxCell>
        <mxCell id="FsEV9OsQ5VGh3jvW_iLM-268" value="statusOfEmployee: married, mom" style="text;strokeColor=none;fillColor=none;align=left;verticalAlign=top;spacingLeft=4;spacingRight=4;overflow=hidden;rotatable=0;points=[[0,0.5],[1,0.5]];portConstraint=eastwest;whiteSpace=wrap;html=1;" parent="FsEV9OsQ5VGh3jvW_iLM-259" vertex="1">
          <mxGeometry y="234" width="190" height="26" as="geometry" />
        </mxCell>
        <mxCell id="FsEV9OsQ5VGh3jvW_iLM-269" value="phoneNumber:&amp;nbsp;0531122334" style="text;strokeColor=none;fillColor=none;align=left;verticalAlign=top;spacingLeft=4;spacingRight=4;overflow=hidden;rotatable=0;points=[[0,0.5],[1,0.5]];portConstraint=eastwest;whiteSpace=wrap;html=1;" parent="FsEV9OsQ5VGh3jvW_iLM-259" vertex="1">
          <mxGeometry y="260" width="190" height="26" as="geometry" />
        </mxCell>
        <mxCell id="FsEV9OsQ5VGh3jvW_iLM-270" value="RoleType: BRANCHEMPLOYEE" style="text;strokeColor=none;fillColor=none;align=left;verticalAlign=top;spacingLeft=4;spacingRight=4;overflow=hidden;rotatable=0;points=[[0,0.5],[1,0.5]];portConstraint=eastwest;whiteSpace=wrap;html=1;" parent="FsEV9OsQ5VGh3jvW_iLM-259" vertex="1">
          <mxGeometry y="286" width="190" height="26" as="geometry" />
        </mxCell>
        <mxCell id="FsEV9OsQ5VGh3jvW_iLM-271" value="hireDate: 03/03/2022" style="text;strokeColor=none;fillColor=none;align=left;verticalAlign=top;spacingLeft=4;spacingRight=4;overflow=hidden;rotatable=0;points=[[0,0.5],[1,0.5]];portConstraint=eastwest;whiteSpace=wrap;html=1;" parent="FsEV9OsQ5VGh3jvW_iLM-259" vertex="1">
          <mxGeometry y="312" width="190" height="26" as="geometry" />
        </mxCell>
        <mxCell id="FsEV9OsQ5VGh3jvW_iLM-272" value="isLogged: false" style="text;strokeColor=none;fillColor=none;align=left;verticalAlign=top;spacingLeft=4;spacingRight=4;overflow=hidden;rotatable=0;points=[[0,0.5],[1,0.5]];portConstraint=eastwest;whiteSpace=wrap;html=1;" parent="FsEV9OsQ5VGh3jvW_iLM-259" vertex="1">
          <mxGeometry y="338" width="190" height="26" as="geometry" />
        </mxCell>
        <mxCell id="FsEV9OsQ5VGh3jvW_iLM-277" style="edgeStyle=orthogonalEdgeStyle;rounded=0;orthogonalLoop=1;jettySize=auto;html=1;exitX=0.5;exitY=0;exitDx=0;exitDy=0;entryX=0.5;entryY=1.038;entryDx=0;entryDy=0;entryPerimeter=0;endArrow=block;endFill=0;" parent="WIyWlLk6GJQsqaUBKTNV-1" source="FsEV9OsQ5VGh3jvW_iLM-278" target="FsEV9OsQ5VGh3jvW_iLM-272" edge="1">
          <mxGeometry relative="1" as="geometry" />
        </mxCell>
        <mxCell id="FsEV9OsQ5VGh3jvW_iLM-278" value="BranchEmployee" style="swimlane;fontStyle=0;childLayout=stackLayout;horizontal=1;startSize=26;fillColor=none;horizontalStack=0;resizeParent=1;resizeParentMax=0;resizeLast=0;collapsible=1;marginBottom=0;whiteSpace=wrap;html=1;" parent="WIyWlLk6GJQsqaUBKTNV-1" vertex="1">
          <mxGeometry x="-487.5" y="962" width="217.5" height="104" as="geometry" />
        </mxCell>
        <mxCell id="FsEV9OsQ5VGh3jvW_iLM-279" value="managment: true" style="text;strokeColor=none;fillColor=none;align=left;verticalAlign=top;spacingLeft=4;spacingRight=4;overflow=hidden;rotatable=0;points=[[0,0.5],[1,0.5]];portConstraint=eastwest;whiteSpace=wrap;html=1;" parent="FsEV9OsQ5VGh3jvW_iLM-278" vertex="1">
          <mxGeometry y="26" width="217.5" height="26" as="geometry" />
        </mxCell>
        <mxCell id="FsEV9OsQ5VGh3jvW_iLM-280" value="cancellations: true" style="text;strokeColor=none;fillColor=none;align=left;verticalAlign=top;spacingLeft=4;spacingRight=4;overflow=hidden;rotatable=0;points=[[0,0.5],[1,0.5]];portConstraint=eastwest;whiteSpace=wrap;html=1;" parent="FsEV9OsQ5VGh3jvW_iLM-278" vertex="1">
          <mxGeometry y="52" width="217.5" height="26" as="geometry" />
        </mxCell>
        <mxCell id="FsEV9OsQ5VGh3jvW_iLM-282" value="roles: [Store Keeper]" style="text;strokeColor=none;fillColor=none;align=left;verticalAlign=top;spacingLeft=4;spacingRight=4;overflow=hidden;rotatable=0;points=[[0,0.5],[1,0.5]];portConstraint=eastwest;whiteSpace=wrap;html=1;" parent="FsEV9OsQ5VGh3jvW_iLM-278" vertex="1">
          <mxGeometry y="78" width="217.5" height="26" as="geometry" />
        </mxCell>
        <mxCell id="FsEV9OsQ5VGh3jvW_iLM-285" value="has" style="edgeStyle=orthogonalEdgeStyle;rounded=0;orthogonalLoop=1;jettySize=auto;html=1;exitX=0;exitY=0.5;exitDx=0;exitDy=0;entryX=0.5;entryY=0;entryDx=0;entryDy=0;" parent="WIyWlLk6GJQsqaUBKTNV-1" source="FsEV9OsQ5VGh3jvW_iLM-239" target="FsEV9OsQ5VGh3jvW_iLM-259" edge="1">
          <mxGeometry relative="1" as="geometry" />
        </mxCell>
        <mxCell id="FsEV9OsQ5VGh3jvW_iLM-286" value="××¢×¨×: ×××©××¨××ª ××× ×§××× ×× ×× ×× ××©××¨×ª ×× ×× ×¨×××ª ××ª×¨×©×× ×× ×× ×××× ×¡×" style="text;html=1;strokeColor=none;fillColor=none;align=center;verticalAlign=middle;whiteSpace=wrap;rounded=0;" parent="WIyWlLk6GJQsqaUBKTNV-1" vertex="1">
          <mxGeometry x="-509.75" y="1090" width="163" height="30" as="geometry" />
        </mxCell>
        <mxCell id="FsEV9OsQ5VGh3jvW_iLM-287" value="××¢×¨×: ×××§×× ×¢× ××¨×× ××ª×¨×©×× ×××¤×¢×× ×©× ×¢×××××, ×¢× ×¤×× ×××©××¨××ª ××§××©×¨×× ××§×× ××¨×××¨×× ×©×××" style="text;html=1;strokeColor=none;fillColor=none;align=right;verticalAlign=middle;whiteSpace=wrap;rounded=0;" parent="WIyWlLk6GJQsqaUBKTNV-1" vertex="1">
          <mxGeometry x="-800" y="70" width="254" height="30" as="geometry" />
        </mxCell>
        <mxCell id="FsEV9OsQ5VGh3jvW_iLM-288" value="" style="group" parent="WIyWlLk6GJQsqaUBKTNV-1" vertex="1" connectable="0">
          <mxGeometry x="-546" y="1991" width="115" height="112" as="geometry" />
        </mxCell>
        <mxCell id="FsEV9OsQ5VGh3jvW_iLM-289" value="BranchDAO" style="swimlane;fontStyle=0;childLayout=stackLayout;horizontal=1;startSize=26;fillColor=none;horizontalStack=0;resizeParent=1;resizeParentMax=0;resizeLast=0;collapsible=1;marginBottom=0;whiteSpace=wrap;html=1;" parent="FsEV9OsQ5VGh3jvW_iLM-288" vertex="1">
          <mxGeometry y="60" width="100" height="52" as="geometry" />
        </mxCell>
        <mxCell id="FsEV9OsQ5VGh3jvW_iLM-290" style="edgeStyle=orthogonalEdgeStyle;rounded=0;orthogonalLoop=1;jettySize=auto;html=1;entryX=0.25;entryY=0;entryDx=0;entryDy=0;endArrow=block;endFill=0;" parent="FsEV9OsQ5VGh3jvW_iLM-288" source="FsEV9OsQ5VGh3jvW_iLM-291" target="FsEV9OsQ5VGh3jvW_iLM-289" edge="1">
          <mxGeometry relative="1" as="geometry" />
        </mxCell>
        <mxCell id="FsEV9OsQ5VGh3jvW_iLM-291" value="B" style="ellipse;whiteSpace=wrap;html=1;aspect=fixed;fontSize=16;" parent="FsEV9OsQ5VGh3jvW_iLM-288" vertex="1">
          <mxGeometry x="8" y="-10" width="34" height="34" as="geometry" />
        </mxCell>
        <mxCell id="FsEV9OsQ5VGh3jvW_iLM-292" style="edgeStyle=orthogonalEdgeStyle;rounded=0;orthogonalLoop=1;jettySize=auto;html=1;entryX=0.75;entryY=0;entryDx=0;entryDy=0;endArrow=none;endFill=0;" parent="FsEV9OsQ5VGh3jvW_iLM-288" source="FsEV9OsQ5VGh3jvW_iLM-293" target="FsEV9OsQ5VGh3jvW_iLM-289" edge="1">
          <mxGeometry relative="1" as="geometry" />
        </mxCell>
        <mxCell id="FsEV9OsQ5VGh3jvW_iLM-293" value="A" style="ellipse;whiteSpace=wrap;html=1;aspect=fixed;fontSize=16;" parent="FsEV9OsQ5VGh3jvW_iLM-288" vertex="1">
          <mxGeometry x="58" y="-10" width="34" height="34" as="geometry" />
        </mxCell>
        <mxCell id="FsEV9OsQ5VGh3jvW_iLM-294" value="" style="group" parent="WIyWlLk6GJQsqaUBKTNV-1" vertex="1" connectable="0">
          <mxGeometry x="-422.5" y="1981" width="140" height="122" as="geometry" />
        </mxCell>
        <mxCell id="FsEV9OsQ5VGh3jvW_iLM-295" value="BranchEmployeeDAO" style="swimlane;fontStyle=0;childLayout=stackLayout;horizontal=1;startSize=26;fillColor=none;horizontalStack=0;resizeParent=1;resizeParentMax=0;resizeLast=0;collapsible=1;marginBottom=0;whiteSpace=wrap;html=1;" parent="FsEV9OsQ5VGh3jvW_iLM-294" vertex="1">
          <mxGeometry y="70" width="140" height="52" as="geometry" />
        </mxCell>
        <mxCell id="FsEV9OsQ5VGh3jvW_iLM-296" style="edgeStyle=orthogonalEdgeStyle;rounded=0;orthogonalLoop=1;jettySize=auto;html=1;entryX=0.25;entryY=0;entryDx=0;entryDy=0;endArrow=block;endFill=0;" parent="FsEV9OsQ5VGh3jvW_iLM-294" source="FsEV9OsQ5VGh3jvW_iLM-297" target="FsEV9OsQ5VGh3jvW_iLM-295" edge="1">
          <mxGeometry relative="1" as="geometry" />
        </mxCell>
        <mxCell id="FsEV9OsQ5VGh3jvW_iLM-297" value="B" style="ellipse;whiteSpace=wrap;html=1;aspect=fixed;fontSize=16;" parent="FsEV9OsQ5VGh3jvW_iLM-294" vertex="1">
          <mxGeometry x="18" width="34" height="34" as="geometry" />
        </mxCell>
        <mxCell id="FsEV9OsQ5VGh3jvW_iLM-298" style="edgeStyle=orthogonalEdgeStyle;rounded=0;orthogonalLoop=1;jettySize=auto;html=1;exitX=0.5;exitY=1;exitDx=0;exitDy=0;entryX=0.75;entryY=0;entryDx=0;entryDy=0;endArrow=none;endFill=0;" parent="FsEV9OsQ5VGh3jvW_iLM-294" source="FsEV9OsQ5VGh3jvW_iLM-299" target="FsEV9OsQ5VGh3jvW_iLM-295" edge="1">
          <mxGeometry relative="1" as="geometry" />
        </mxCell>
        <mxCell id="FsEV9OsQ5VGh3jvW_iLM-299" value="A" style="ellipse;whiteSpace=wrap;html=1;aspect=fixed;fontSize=16;" parent="FsEV9OsQ5VGh3jvW_iLM-294" vertex="1">
          <mxGeometry x="88" width="34" height="34" as="geometry" />
        </mxCell>
        <mxCell id="FsEV9OsQ5VGh3jvW_iLM-300" value="" style="group" parent="WIyWlLk6GJQsqaUBKTNV-1" vertex="1" connectable="0">
          <mxGeometry x="-256.5" y="1981" width="154" height="122" as="geometry" />
        </mxCell>
        <mxCell id="FsEV9OsQ5VGh3jvW_iLM-301" value="BranchEmployeeRoleDAO" style="swimlane;fontStyle=0;childLayout=stackLayout;horizontal=1;startSize=26;fillColor=none;horizontalStack=0;resizeParent=1;resizeParentMax=0;resizeLast=0;collapsible=1;marginBottom=0;whiteSpace=wrap;html=1;" parent="FsEV9OsQ5VGh3jvW_iLM-300" vertex="1">
          <mxGeometry y="70" width="154" height="52" as="geometry" />
        </mxCell>
        <mxCell id="FsEV9OsQ5VGh3jvW_iLM-302" style="edgeStyle=orthogonalEdgeStyle;rounded=0;orthogonalLoop=1;jettySize=auto;html=1;endArrow=block;endFill=0;entryX=0.25;entryY=0;entryDx=0;entryDy=0;" parent="FsEV9OsQ5VGh3jvW_iLM-300" source="FsEV9OsQ5VGh3jvW_iLM-303" target="FsEV9OsQ5VGh3jvW_iLM-301" edge="1">
          <mxGeometry relative="1" as="geometry" />
        </mxCell>
        <mxCell id="FsEV9OsQ5VGh3jvW_iLM-303" value="B" style="ellipse;whiteSpace=wrap;html=1;aspect=fixed;fontSize=16;" parent="FsEV9OsQ5VGh3jvW_iLM-300" vertex="1">
          <mxGeometry x="22" width="34" height="34" as="geometry" />
        </mxCell>
        <mxCell id="FsEV9OsQ5VGh3jvW_iLM-304" style="rounded=0;orthogonalLoop=1;jettySize=auto;html=1;exitX=0.5;exitY=1;exitDx=0;exitDy=0;entryX=0.75;entryY=0;entryDx=0;entryDy=0;endArrow=none;endFill=0;" parent="FsEV9OsQ5VGh3jvW_iLM-300" source="FsEV9OsQ5VGh3jvW_iLM-305" target="FsEV9OsQ5VGh3jvW_iLM-301" edge="1">
          <mxGeometry relative="1" as="geometry" />
        </mxCell>
        <mxCell id="FsEV9OsQ5VGh3jvW_iLM-305" value="A" style="ellipse;whiteSpace=wrap;html=1;aspect=fixed;fontSize=16;" parent="FsEV9OsQ5VGh3jvW_iLM-300" vertex="1">
          <mxGeometry x="99" width="34" height="34" as="geometry" />
        </mxCell>
        <mxCell id="FsEV9OsQ5VGh3jvW_iLM-306" value="" style="group" parent="WIyWlLk6GJQsqaUBKTNV-1" vertex="1" connectable="0">
          <mxGeometry x="164.5" y="1816" width="110" height="122" as="geometry" />
        </mxCell>
        <mxCell id="FsEV9OsQ5VGh3jvW_iLM-307" value="BranchShiftDAO" style="swimlane;fontStyle=0;childLayout=stackLayout;horizontal=1;startSize=26;fillColor=none;horizontalStack=0;resizeParent=1;resizeParentMax=0;resizeLast=0;collapsible=1;marginBottom=0;whiteSpace=wrap;html=1;" parent="FsEV9OsQ5VGh3jvW_iLM-306" vertex="1">
          <mxGeometry y="70" width="110" height="52" as="geometry" />
        </mxCell>
        <mxCell id="FsEV9OsQ5VGh3jvW_iLM-308" style="edgeStyle=orthogonalEdgeStyle;rounded=0;orthogonalLoop=1;jettySize=auto;html=1;endArrow=block;endFill=0;entryX=0.25;entryY=0;entryDx=0;entryDy=0;" parent="FsEV9OsQ5VGh3jvW_iLM-306" source="FsEV9OsQ5VGh3jvW_iLM-309" target="FsEV9OsQ5VGh3jvW_iLM-307" edge="1">
          <mxGeometry relative="1" as="geometry" />
        </mxCell>
        <mxCell id="FsEV9OsQ5VGh3jvW_iLM-309" value="B" style="ellipse;whiteSpace=wrap;html=1;aspect=fixed;fontSize=16;" parent="FsEV9OsQ5VGh3jvW_iLM-306" vertex="1">
          <mxGeometry x="11" width="34" height="34" as="geometry" />
        </mxCell>
        <mxCell id="FsEV9OsQ5VGh3jvW_iLM-310" style="rounded=0;orthogonalLoop=1;jettySize=auto;html=1;entryX=0.75;entryY=0;entryDx=0;entryDy=0;endArrow=none;endFill=0;" parent="FsEV9OsQ5VGh3jvW_iLM-306" source="FsEV9OsQ5VGh3jvW_iLM-311" target="FsEV9OsQ5VGh3jvW_iLM-307" edge="1">
          <mxGeometry relative="1" as="geometry" />
        </mxCell>
        <mxCell id="FsEV9OsQ5VGh3jvW_iLM-311" value="A" style="ellipse;whiteSpace=wrap;html=1;aspect=fixed;fontSize=16;" parent="FsEV9OsQ5VGh3jvW_iLM-306" vertex="1">
          <mxGeometry x="66" width="34" height="34" as="geometry" />
        </mxCell>
        <mxCell id="FsEV9OsQ5VGh3jvW_iLM-312" value="" style="group" parent="WIyWlLk6GJQsqaUBKTNV-1" vertex="1" connectable="0">
          <mxGeometry x="-44.5" y="1816" width="172" height="122" as="geometry" />
        </mxCell>
        <mxCell id="FsEV9OsQ5VGh3jvW_iLM-313" value="ConstraintToEmployeeDAO" style="swimlane;fontStyle=0;childLayout=stackLayout;horizontal=1;startSize=26;fillColor=none;horizontalStack=0;resizeParent=1;resizeParentMax=0;resizeLast=0;collapsible=1;marginBottom=0;whiteSpace=wrap;html=1;" parent="FsEV9OsQ5VGh3jvW_iLM-312" vertex="1">
          <mxGeometry y="70" width="172" height="52" as="geometry" />
        </mxCell>
        <mxCell id="FsEV9OsQ5VGh3jvW_iLM-314" style="edgeStyle=orthogonalEdgeStyle;rounded=0;orthogonalLoop=1;jettySize=auto;html=1;endArrow=block;endFill=0;entryX=0.25;entryY=0;entryDx=0;entryDy=0;" parent="FsEV9OsQ5VGh3jvW_iLM-312" source="FsEV9OsQ5VGh3jvW_iLM-315" target="FsEV9OsQ5VGh3jvW_iLM-313" edge="1">
          <mxGeometry relative="1" as="geometry" />
        </mxCell>
        <mxCell id="FsEV9OsQ5VGh3jvW_iLM-315" value="B" style="ellipse;whiteSpace=wrap;html=1;aspect=fixed;fontSize=16;" parent="FsEV9OsQ5VGh3jvW_iLM-312" vertex="1">
          <mxGeometry x="26" width="34" height="34" as="geometry" />
        </mxCell>
        <mxCell id="FsEV9OsQ5VGh3jvW_iLM-316" style="edgeStyle=orthogonalEdgeStyle;rounded=0;orthogonalLoop=1;jettySize=auto;html=1;entryX=0.75;entryY=0;entryDx=0;entryDy=0;endArrow=none;endFill=0;" parent="FsEV9OsQ5VGh3jvW_iLM-312" source="FsEV9OsQ5VGh3jvW_iLM-317" target="FsEV9OsQ5VGh3jvW_iLM-313" edge="1">
          <mxGeometry relative="1" as="geometry" />
        </mxCell>
        <mxCell id="FsEV9OsQ5VGh3jvW_iLM-317" value="A" style="ellipse;whiteSpace=wrap;html=1;aspect=fixed;fontSize=16;" parent="FsEV9OsQ5VGh3jvW_iLM-312" vertex="1">
          <mxGeometry x="112" width="34" height="34" as="geometry" />
        </mxCell>
        <mxCell id="FsEV9OsQ5VGh3jvW_iLM-318" value="" style="group" parent="WIyWlLk6GJQsqaUBKTNV-1" vertex="1" connectable="0">
          <mxGeometry x="-546" y="2126" width="80" height="122" as="geometry" />
        </mxCell>
        <mxCell id="FsEV9OsQ5VGh3jvW_iLM-319" value="DriverDAO" style="swimlane;fontStyle=0;childLayout=stackLayout;horizontal=1;startSize=26;fillColor=none;horizontalStack=0;resizeParent=1;resizeParentMax=0;resizeLast=0;collapsible=1;marginBottom=0;whiteSpace=wrap;html=1;" parent="FsEV9OsQ5VGh3jvW_iLM-318" vertex="1">
          <mxGeometry y="70" width="80" height="52" as="geometry" />
        </mxCell>
        <mxCell id="FsEV9OsQ5VGh3jvW_iLM-320" style="edgeStyle=orthogonalEdgeStyle;rounded=0;orthogonalLoop=1;jettySize=auto;html=1;entryX=0.25;entryY=0;entryDx=0;entryDy=0;endArrow=block;endFill=0;" parent="FsEV9OsQ5VGh3jvW_iLM-318" source="FsEV9OsQ5VGh3jvW_iLM-321" target="FsEV9OsQ5VGh3jvW_iLM-319" edge="1">
          <mxGeometry relative="1" as="geometry" />
        </mxCell>
        <mxCell id="FsEV9OsQ5VGh3jvW_iLM-321" value="B" style="ellipse;whiteSpace=wrap;html=1;aspect=fixed;fontSize=16;" parent="FsEV9OsQ5VGh3jvW_iLM-318" vertex="1">
          <mxGeometry x="3" width="34" height="34" as="geometry" />
        </mxCell>
        <mxCell id="FsEV9OsQ5VGh3jvW_iLM-322" style="edgeStyle=orthogonalEdgeStyle;rounded=0;orthogonalLoop=1;jettySize=auto;html=1;entryX=0.75;entryY=0;entryDx=0;entryDy=0;endArrow=none;endFill=0;" parent="FsEV9OsQ5VGh3jvW_iLM-318" source="FsEV9OsQ5VGh3jvW_iLM-323" target="FsEV9OsQ5VGh3jvW_iLM-319" edge="1">
          <mxGeometry relative="1" as="geometry" />
        </mxCell>
        <mxCell id="FsEV9OsQ5VGh3jvW_iLM-323" value="A" style="ellipse;whiteSpace=wrap;html=1;aspect=fixed;fontSize=16;" parent="FsEV9OsQ5VGh3jvW_iLM-318" vertex="1">
          <mxGeometry x="43" width="34" height="34" as="geometry" />
        </mxCell>
        <mxCell id="FsEV9OsQ5VGh3jvW_iLM-324" value="" style="group" parent="WIyWlLk6GJQsqaUBKTNV-1" vertex="1" connectable="0">
          <mxGeometry x="-442.5" y="2126" width="140" height="122" as="geometry" />
        </mxCell>
        <mxCell id="FsEV9OsQ5VGh3jvW_iLM-325" value="DriverDeliveryDatesDAO" style="swimlane;fontStyle=0;childLayout=stackLayout;horizontal=1;startSize=26;fillColor=none;horizontalStack=0;resizeParent=1;resizeParentMax=0;resizeLast=0;collapsible=1;marginBottom=0;whiteSpace=wrap;html=1;" parent="FsEV9OsQ5VGh3jvW_iLM-324" vertex="1">
          <mxGeometry y="70" width="140" height="52" as="geometry" />
        </mxCell>
        <mxCell id="FsEV9OsQ5VGh3jvW_iLM-326" style="edgeStyle=orthogonalEdgeStyle;rounded=0;orthogonalLoop=1;jettySize=auto;html=1;endArrow=block;endFill=0;entryX=0.25;entryY=0;entryDx=0;entryDy=0;" parent="FsEV9OsQ5VGh3jvW_iLM-324" source="FsEV9OsQ5VGh3jvW_iLM-327" target="FsEV9OsQ5VGh3jvW_iLM-325" edge="1">
          <mxGeometry relative="1" as="geometry" />
        </mxCell>
        <mxCell id="FsEV9OsQ5VGh3jvW_iLM-327" value="B" style="ellipse;whiteSpace=wrap;html=1;aspect=fixed;fontSize=16;" parent="FsEV9OsQ5VGh3jvW_iLM-324" vertex="1">
          <mxGeometry x="18" width="34" height="34" as="geometry" />
        </mxCell>
        <mxCell id="FsEV9OsQ5VGh3jvW_iLM-328" style="edgeStyle=orthogonalEdgeStyle;rounded=0;orthogonalLoop=1;jettySize=auto;html=1;entryX=0.75;entryY=0;entryDx=0;entryDy=0;endArrow=none;endFill=0;" parent="FsEV9OsQ5VGh3jvW_iLM-324" source="FsEV9OsQ5VGh3jvW_iLM-329" target="FsEV9OsQ5VGh3jvW_iLM-325" edge="1">
          <mxGeometry relative="1" as="geometry" />
        </mxCell>
        <mxCell id="FsEV9OsQ5VGh3jvW_iLM-329" value="A" style="ellipse;whiteSpace=wrap;html=1;aspect=fixed;fontSize=16;" parent="FsEV9OsQ5VGh3jvW_iLM-324" vertex="1">
          <mxGeometry x="88" width="34" height="34" as="geometry" />
        </mxCell>
        <mxCell id="FsEV9OsQ5VGh3jvW_iLM-330" value="" style="group" parent="WIyWlLk6GJQsqaUBKTNV-1" vertex="1" connectable="0">
          <mxGeometry x="-272.5" y="2126" width="140" height="122" as="geometry" />
        </mxCell>
        <mxCell id="FsEV9OsQ5VGh3jvW_iLM-331" value="DriverQualificationsDAO" style="swimlane;fontStyle=0;childLayout=stackLayout;horizontal=1;startSize=26;fillColor=none;horizontalStack=0;resizeParent=1;resizeParentMax=0;resizeLast=0;collapsible=1;marginBottom=0;whiteSpace=wrap;html=1;" parent="FsEV9OsQ5VGh3jvW_iLM-330" vertex="1">
          <mxGeometry y="70" width="140" height="52" as="geometry" />
        </mxCell>
        <mxCell id="FsEV9OsQ5VGh3jvW_iLM-332" style="edgeStyle=orthogonalEdgeStyle;rounded=0;orthogonalLoop=1;jettySize=auto;html=1;exitX=0.5;exitY=1;exitDx=0;exitDy=0;endArrow=block;endFill=0;entryX=0.25;entryY=0;entryDx=0;entryDy=0;" parent="FsEV9OsQ5VGh3jvW_iLM-330" source="FsEV9OsQ5VGh3jvW_iLM-333" target="FsEV9OsQ5VGh3jvW_iLM-331" edge="1">
          <mxGeometry relative="1" as="geometry" />
        </mxCell>
        <mxCell id="FsEV9OsQ5VGh3jvW_iLM-333" value="B" style="ellipse;whiteSpace=wrap;html=1;aspect=fixed;fontSize=16;" parent="FsEV9OsQ5VGh3jvW_iLM-330" vertex="1">
          <mxGeometry x="18" width="34" height="34" as="geometry" />
        </mxCell>
        <mxCell id="FsEV9OsQ5VGh3jvW_iLM-334" style="edgeStyle=orthogonalEdgeStyle;rounded=0;orthogonalLoop=1;jettySize=auto;html=1;exitX=0.5;exitY=1;exitDx=0;exitDy=0;entryX=0.75;entryY=0;entryDx=0;entryDy=0;endArrow=none;endFill=0;" parent="FsEV9OsQ5VGh3jvW_iLM-330" source="FsEV9OsQ5VGh3jvW_iLM-335" target="FsEV9OsQ5VGh3jvW_iLM-331" edge="1">
          <mxGeometry relative="1" as="geometry" />
        </mxCell>
        <mxCell id="FsEV9OsQ5VGh3jvW_iLM-335" value="A" style="ellipse;whiteSpace=wrap;html=1;aspect=fixed;fontSize=16;" parent="FsEV9OsQ5VGh3jvW_iLM-330" vertex="1">
          <mxGeometry x="86.5" width="34" height="34" as="geometry" />
        </mxCell>
        <mxCell id="FsEV9OsQ5VGh3jvW_iLM-336" value="" style="group" parent="WIyWlLk6GJQsqaUBKTNV-1" vertex="1" connectable="0">
          <mxGeometry x="-112.5" y="2126" width="140" height="122" as="geometry" />
        </mxCell>
        <mxCell id="FsEV9OsQ5VGh3jvW_iLM-337" value="DriverScheduleDAO" style="swimlane;fontStyle=0;childLayout=stackLayout;horizontal=1;startSize=26;fillColor=none;horizontalStack=0;resizeParent=1;resizeParentMax=0;resizeLast=0;collapsible=1;marginBottom=0;whiteSpace=wrap;html=1;" parent="FsEV9OsQ5VGh3jvW_iLM-336" vertex="1">
          <mxGeometry y="70" width="140" height="52" as="geometry" />
        </mxCell>
        <mxCell id="FsEV9OsQ5VGh3jvW_iLM-338" style="edgeStyle=orthogonalEdgeStyle;rounded=0;orthogonalLoop=1;jettySize=auto;html=1;endArrow=block;endFill=0;entryX=0.25;entryY=0;entryDx=0;entryDy=0;" parent="FsEV9OsQ5VGh3jvW_iLM-336" source="FsEV9OsQ5VGh3jvW_iLM-339" target="FsEV9OsQ5VGh3jvW_iLM-337" edge="1">
          <mxGeometry relative="1" as="geometry" />
        </mxCell>
        <mxCell id="FsEV9OsQ5VGh3jvW_iLM-339" value="B" style="ellipse;whiteSpace=wrap;html=1;aspect=fixed;fontSize=16;" parent="FsEV9OsQ5VGh3jvW_iLM-336" vertex="1">
          <mxGeometry x="18" width="34" height="34" as="geometry" />
        </mxCell>
        <mxCell id="FsEV9OsQ5VGh3jvW_iLM-340" style="edgeStyle=orthogonalEdgeStyle;rounded=0;orthogonalLoop=1;jettySize=auto;html=1;entryX=0.75;entryY=0;entryDx=0;entryDy=0;endArrow=none;endFill=0;" parent="FsEV9OsQ5VGh3jvW_iLM-336" source="FsEV9OsQ5VGh3jvW_iLM-341" target="FsEV9OsQ5VGh3jvW_iLM-337" edge="1">
          <mxGeometry relative="1" as="geometry" />
        </mxCell>
        <mxCell id="FsEV9OsQ5VGh3jvW_iLM-341" value="A" style="ellipse;whiteSpace=wrap;html=1;aspect=fixed;fontSize=16;" parent="FsEV9OsQ5VGh3jvW_iLM-336" vertex="1">
          <mxGeometry x="88" width="34" height="34" as="geometry" />
        </mxCell>
        <mxCell id="FsEV9OsQ5VGh3jvW_iLM-342" value="" style="group" parent="WIyWlLk6GJQsqaUBKTNV-1" vertex="1" connectable="0">
          <mxGeometry x="55.75" y="2126" width="86" height="122" as="geometry" />
        </mxCell>
        <mxCell id="FsEV9OsQ5VGh3jvW_iLM-343" value="DriverShift" style="swimlane;fontStyle=0;childLayout=stackLayout;horizontal=1;startSize=26;fillColor=none;horizontalStack=0;resizeParent=1;resizeParentMax=0;resizeLast=0;collapsible=1;marginBottom=0;whiteSpace=wrap;html=1;" parent="FsEV9OsQ5VGh3jvW_iLM-342" vertex="1">
          <mxGeometry y="70" width="86" height="52" as="geometry" />
        </mxCell>
        <mxCell id="FsEV9OsQ5VGh3jvW_iLM-344" style="edgeStyle=orthogonalEdgeStyle;rounded=0;orthogonalLoop=1;jettySize=auto;html=1;entryX=0.25;entryY=0;entryDx=0;entryDy=0;endArrow=block;endFill=0;" parent="FsEV9OsQ5VGh3jvW_iLM-342" source="FsEV9OsQ5VGh3jvW_iLM-345" target="FsEV9OsQ5VGh3jvW_iLM-343" edge="1">
          <mxGeometry relative="1" as="geometry" />
        </mxCell>
        <mxCell id="FsEV9OsQ5VGh3jvW_iLM-345" value="B" style="ellipse;whiteSpace=wrap;html=1;aspect=fixed;fontSize=16;" parent="FsEV9OsQ5VGh3jvW_iLM-342" vertex="1">
          <mxGeometry x="4" width="34" height="34" as="geometry" />
        </mxCell>
        <mxCell id="FsEV9OsQ5VGh3jvW_iLM-346" style="edgeStyle=orthogonalEdgeStyle;rounded=0;orthogonalLoop=1;jettySize=auto;html=1;entryX=0.75;entryY=0;entryDx=0;entryDy=0;endArrow=none;endFill=0;" parent="FsEV9OsQ5VGh3jvW_iLM-342" source="FsEV9OsQ5VGh3jvW_iLM-347" target="FsEV9OsQ5VGh3jvW_iLM-343" edge="1">
          <mxGeometry relative="1" as="geometry" />
        </mxCell>
        <mxCell id="FsEV9OsQ5VGh3jvW_iLM-347" value="A" style="ellipse;whiteSpace=wrap;html=1;aspect=fixed;fontSize=16;" parent="FsEV9OsQ5VGh3jvW_iLM-342" vertex="1">
          <mxGeometry x="48" width="34" height="34" as="geometry" />
        </mxCell>
        <mxCell id="FsEV9OsQ5VGh3jvW_iLM-348" value="" style="group" parent="WIyWlLk6GJQsqaUBKTNV-1" vertex="1" connectable="0">
          <mxGeometry x="179.5" y="2126" width="159" height="122" as="geometry" />
        </mxCell>
        <mxCell id="FsEV9OsQ5VGh3jvW_iLM-349" value="EmployeeConstraintDAO" style="swimlane;fontStyle=0;childLayout=stackLayout;horizontal=1;startSize=26;fillColor=none;horizontalStack=0;resizeParent=1;resizeParentMax=0;resizeLast=0;collapsible=1;marginBottom=0;whiteSpace=wrap;html=1;" parent="FsEV9OsQ5VGh3jvW_iLM-348" vertex="1">
          <mxGeometry y="70" width="140" height="52" as="geometry" />
        </mxCell>
        <mxCell id="FsEV9OsQ5VGh3jvW_iLM-350" style="edgeStyle=orthogonalEdgeStyle;rounded=0;orthogonalLoop=1;jettySize=auto;html=1;endArrow=block;endFill=0;entryX=0.25;entryY=0;entryDx=0;entryDy=0;" parent="FsEV9OsQ5VGh3jvW_iLM-348" source="FsEV9OsQ5VGh3jvW_iLM-351" target="FsEV9OsQ5VGh3jvW_iLM-349" edge="1">
          <mxGeometry relative="1" as="geometry" />
        </mxCell>
        <mxCell id="FsEV9OsQ5VGh3jvW_iLM-351" value="B" style="ellipse;whiteSpace=wrap;html=1;aspect=fixed;fontSize=16;" parent="FsEV9OsQ5VGh3jvW_iLM-348" vertex="1">
          <mxGeometry x="18" width="34" height="34" as="geometry" />
        </mxCell>
        <mxCell id="FsEV9OsQ5VGh3jvW_iLM-352" style="edgeStyle=orthogonalEdgeStyle;rounded=0;orthogonalLoop=1;jettySize=auto;html=1;entryX=0.75;entryY=0;entryDx=0;entryDy=0;endArrow=none;endFill=0;" parent="FsEV9OsQ5VGh3jvW_iLM-348" edge="1">
          <mxGeometry relative="1" as="geometry">
            <mxPoint x="103" y="34" as="sourcePoint" />
            <mxPoint x="106" y="70" as="targetPoint" />
          </mxGeometry>
        </mxCell>
        <mxCell id="FsEV9OsQ5VGh3jvW_iLM-353" value="A" style="ellipse;whiteSpace=wrap;html=1;aspect=fixed;fontSize=16;" parent="FsEV9OsQ5VGh3jvW_iLM-348" vertex="1">
          <mxGeometry x="89" width="34" height="34" as="geometry" />
        </mxCell>
        <mxCell id="FsEV9OsQ5VGh3jvW_iLM-354" value="" style="group" parent="WIyWlLk6GJQsqaUBKTNV-1" vertex="1" connectable="0">
          <mxGeometry x="-83.5" y="1991" width="102" height="112" as="geometry" />
        </mxCell>
        <mxCell id="FsEV9OsQ5VGh3jvW_iLM-355" value="EmployeeDAO" style="swimlane;fontStyle=0;childLayout=stackLayout;horizontal=1;startSize=26;fillColor=none;horizontalStack=0;resizeParent=1;resizeParentMax=0;resizeLast=0;collapsible=1;marginBottom=0;whiteSpace=wrap;html=1;" parent="FsEV9OsQ5VGh3jvW_iLM-354" vertex="1">
          <mxGeometry y="60" width="90" height="52" as="geometry" />
        </mxCell>
        <mxCell id="FsEV9OsQ5VGh3jvW_iLM-356" style="edgeStyle=orthogonalEdgeStyle;rounded=0;orthogonalLoop=1;jettySize=auto;html=1;exitX=0.5;exitY=1;exitDx=0;exitDy=0;entryX=0.25;entryY=0;entryDx=0;entryDy=0;endArrow=block;endFill=0;" parent="FsEV9OsQ5VGh3jvW_iLM-354" source="FsEV9OsQ5VGh3jvW_iLM-357" target="FsEV9OsQ5VGh3jvW_iLM-355" edge="1">
          <mxGeometry relative="1" as="geometry" />
        </mxCell>
        <mxCell id="FsEV9OsQ5VGh3jvW_iLM-357" value="B" style="ellipse;whiteSpace=wrap;html=1;aspect=fixed;fontSize=16;" parent="FsEV9OsQ5VGh3jvW_iLM-354" vertex="1">
          <mxGeometry x="7" width="34" height="34" as="geometry" />
        </mxCell>
        <mxCell id="FsEV9OsQ5VGh3jvW_iLM-358" style="edgeStyle=orthogonalEdgeStyle;rounded=0;orthogonalLoop=1;jettySize=auto;html=1;exitX=0.5;exitY=1;exitDx=0;exitDy=0;entryX=0.75;entryY=0;entryDx=0;entryDy=0;endArrow=none;endFill=0;" parent="FsEV9OsQ5VGh3jvW_iLM-354" source="FsEV9OsQ5VGh3jvW_iLM-359" target="FsEV9OsQ5VGh3jvW_iLM-355" edge="1">
          <mxGeometry relative="1" as="geometry" />
        </mxCell>
        <mxCell id="FsEV9OsQ5VGh3jvW_iLM-359" value="A" style="ellipse;whiteSpace=wrap;html=1;aspect=fixed;fontSize=16;" parent="FsEV9OsQ5VGh3jvW_iLM-354" vertex="1">
          <mxGeometry x="49" width="34" height="34" as="geometry" />
        </mxCell>
        <mxCell id="FsEV9OsQ5VGh3jvW_iLM-360" value="" style="group" parent="WIyWlLk6GJQsqaUBKTNV-1" vertex="1" connectable="0">
          <mxGeometry x="294.5" y="1981" width="185" height="122" as="geometry" />
        </mxCell>
        <mxCell id="FsEV9OsQ5VGh3jvW_iLM-361" value="ProductCancellationToShiftDAO" style="swimlane;fontStyle=0;childLayout=stackLayout;horizontal=1;startSize=26;fillColor=none;horizontalStack=0;resizeParent=1;resizeParentMax=0;resizeLast=0;collapsible=1;marginBottom=0;whiteSpace=wrap;html=1;" parent="FsEV9OsQ5VGh3jvW_iLM-360" vertex="1">
          <mxGeometry y="70" width="185" height="52" as="geometry" />
        </mxCell>
        <mxCell id="FsEV9OsQ5VGh3jvW_iLM-362" style="edgeStyle=orthogonalEdgeStyle;rounded=0;orthogonalLoop=1;jettySize=auto;html=1;entryX=0.25;entryY=0;entryDx=0;entryDy=0;endArrow=block;endFill=0;" parent="FsEV9OsQ5VGh3jvW_iLM-360" source="FsEV9OsQ5VGh3jvW_iLM-363" edge="1">
          <mxGeometry relative="1" as="geometry">
            <mxPoint x="59.25" y="70" as="targetPoint" />
          </mxGeometry>
        </mxCell>
        <mxCell id="FsEV9OsQ5VGh3jvW_iLM-363" value="B" style="ellipse;whiteSpace=wrap;html=1;aspect=fixed;fontSize=16;" parent="FsEV9OsQ5VGh3jvW_iLM-360" vertex="1">
          <mxGeometry x="42.5" width="34" height="34" as="geometry" />
        </mxCell>
        <mxCell id="FsEV9OsQ5VGh3jvW_iLM-364" style="edgeStyle=orthogonalEdgeStyle;rounded=0;orthogonalLoop=1;jettySize=auto;html=1;entryX=0.75;entryY=0;entryDx=0;entryDy=0;endArrow=none;endFill=0;" parent="FsEV9OsQ5VGh3jvW_iLM-360" source="FsEV9OsQ5VGh3jvW_iLM-365" edge="1">
          <mxGeometry relative="1" as="geometry">
            <mxPoint x="151.75" y="70" as="targetPoint" />
          </mxGeometry>
        </mxCell>
        <mxCell id="FsEV9OsQ5VGh3jvW_iLM-365" value="A" style="ellipse;whiteSpace=wrap;html=1;aspect=fixed;fontSize=16;" parent="FsEV9OsQ5VGh3jvW_iLM-360" vertex="1">
          <mxGeometry x="134.5" width="34" height="34" as="geometry" />
        </mxCell>
        <mxCell id="FsEV9OsQ5VGh3jvW_iLM-366" value="" style="group" parent="WIyWlLk6GJQsqaUBKTNV-1" vertex="1" connectable="0">
          <mxGeometry x="47.5" y="1981" width="102.5" height="122" as="geometry" />
        </mxCell>
        <mxCell id="FsEV9OsQ5VGh3jvW_iLM-367" style="edgeStyle=orthogonalEdgeStyle;rounded=0;orthogonalLoop=1;jettySize=auto;html=1;exitX=0.75;exitY=0;exitDx=0;exitDy=0;entryX=0.5;entryY=1;entryDx=0;entryDy=0;endArrow=none;endFill=0;" parent="FsEV9OsQ5VGh3jvW_iLM-366" source="FsEV9OsQ5VGh3jvW_iLM-368" target="FsEV9OsQ5VGh3jvW_iLM-371" edge="1">
          <mxGeometry relative="1" as="geometry" />
        </mxCell>
        <mxCell id="FsEV9OsQ5VGh3jvW_iLM-368" value="RoleCountDAO" style="swimlane;fontStyle=0;childLayout=stackLayout;horizontal=1;startSize=26;fillColor=none;horizontalStack=0;resizeParent=1;resizeParentMax=0;resizeLast=0;collapsible=1;marginBottom=0;whiteSpace=wrap;html=1;" parent="FsEV9OsQ5VGh3jvW_iLM-366" vertex="1">
          <mxGeometry y="70" width="102.5" height="52" as="geometry" />
        </mxCell>
        <mxCell id="FsEV9OsQ5VGh3jvW_iLM-369" style="edgeStyle=orthogonalEdgeStyle;rounded=0;orthogonalLoop=1;jettySize=auto;html=1;entryX=0.25;entryY=0;entryDx=0;entryDy=0;endArrow=block;endFill=0;" parent="FsEV9OsQ5VGh3jvW_iLM-366" source="FsEV9OsQ5VGh3jvW_iLM-370" target="FsEV9OsQ5VGh3jvW_iLM-368" edge="1">
          <mxGeometry relative="1" as="geometry" />
        </mxCell>
        <mxCell id="FsEV9OsQ5VGh3jvW_iLM-370" value="B" style="ellipse;whiteSpace=wrap;html=1;aspect=fixed;fontSize=16;" parent="FsEV9OsQ5VGh3jvW_iLM-366" vertex="1">
          <mxGeometry x="9.25" width="34" height="34" as="geometry" />
        </mxCell>
        <mxCell id="FsEV9OsQ5VGh3jvW_iLM-371" value="A" style="ellipse;whiteSpace=wrap;html=1;aspect=fixed;fontSize=16;" parent="FsEV9OsQ5VGh3jvW_iLM-366" vertex="1">
          <mxGeometry x="60.5" width="34" height="34" as="geometry" />
        </mxCell>
        <mxCell id="FsEV9OsQ5VGh3jvW_iLM-372" value="" style="group" parent="WIyWlLk6GJQsqaUBKTNV-1" vertex="1" connectable="0">
          <mxGeometry x="179.5" y="1981" width="103" height="122" as="geometry" />
        </mxCell>
        <mxCell id="FsEV9OsQ5VGh3jvW_iLM-373" value="ScheduleDAO" style="swimlane;fontStyle=0;childLayout=stackLayout;horizontal=1;startSize=26;fillColor=none;horizontalStack=0;resizeParent=1;resizeParentMax=0;resizeLast=0;collapsible=1;marginBottom=0;whiteSpace=wrap;html=1;" parent="FsEV9OsQ5VGh3jvW_iLM-372" vertex="1">
          <mxGeometry y="70" width="103" height="52" as="geometry" />
        </mxCell>
        <mxCell id="FsEV9OsQ5VGh3jvW_iLM-374" style="rounded=0;orthogonalLoop=1;jettySize=auto;html=1;endArrow=block;endFill=0;entryX=0.25;entryY=0;entryDx=0;entryDy=0;" parent="FsEV9OsQ5VGh3jvW_iLM-372" source="FsEV9OsQ5VGh3jvW_iLM-375" target="FsEV9OsQ5VGh3jvW_iLM-373" edge="1">
          <mxGeometry relative="1" as="geometry" />
        </mxCell>
        <mxCell id="FsEV9OsQ5VGh3jvW_iLM-375" value="B" style="ellipse;whiteSpace=wrap;html=1;aspect=fixed;fontSize=16;" parent="FsEV9OsQ5VGh3jvW_iLM-372" vertex="1">
          <mxGeometry x="9.5" width="34" height="34" as="geometry" />
        </mxCell>
        <mxCell id="FsEV9OsQ5VGh3jvW_iLM-376" style="edgeStyle=orthogonalEdgeStyle;rounded=0;orthogonalLoop=1;jettySize=auto;html=1;entryX=0.75;entryY=0;entryDx=0;entryDy=0;endArrow=none;endFill=0;" parent="FsEV9OsQ5VGh3jvW_iLM-372" source="FsEV9OsQ5VGh3jvW_iLM-377" target="FsEV9OsQ5VGh3jvW_iLM-373" edge="1">
          <mxGeometry relative="1" as="geometry" />
        </mxCell>
        <mxCell id="FsEV9OsQ5VGh3jvW_iLM-377" value="A" style="ellipse;whiteSpace=wrap;html=1;aspect=fixed;fontSize=16;" parent="FsEV9OsQ5VGh3jvW_iLM-372" vertex="1">
          <mxGeometry x="60" width="34" height="34" as="geometry" />
        </mxCell>
        <mxCell id="FsEV9OsQ5VGh3jvW_iLM-378" value="" style="group" parent="WIyWlLk6GJQsqaUBKTNV-1" vertex="1" connectable="0">
          <mxGeometry x="338.5" y="1816" width="103" height="122" as="geometry" />
        </mxCell>
        <mxCell id="FsEV9OsQ5VGh3jvW_iLM-379" value="ShiftDAO" style="swimlane;fontStyle=0;childLayout=stackLayout;horizontal=1;startSize=26;fillColor=none;horizontalStack=0;resizeParent=1;resizeParentMax=0;resizeLast=0;collapsible=1;marginBottom=0;whiteSpace=wrap;html=1;" parent="FsEV9OsQ5VGh3jvW_iLM-378" vertex="1">
          <mxGeometry y="70" width="103" height="52" as="geometry" />
        </mxCell>
        <mxCell id="FsEV9OsQ5VGh3jvW_iLM-380" style="rounded=0;orthogonalLoop=1;jettySize=auto;html=1;endArrow=block;endFill=0;entryX=0.25;entryY=0;entryDx=0;entryDy=0;" parent="FsEV9OsQ5VGh3jvW_iLM-378" source="FsEV9OsQ5VGh3jvW_iLM-381" target="FsEV9OsQ5VGh3jvW_iLM-379" edge="1">
          <mxGeometry relative="1" as="geometry" />
        </mxCell>
        <mxCell id="FsEV9OsQ5VGh3jvW_iLM-381" value="B" style="ellipse;whiteSpace=wrap;html=1;aspect=fixed;fontSize=16;" parent="FsEV9OsQ5VGh3jvW_iLM-378" vertex="1">
          <mxGeometry x="8" width="34" height="34" as="geometry" />
        </mxCell>
        <mxCell id="FsEV9OsQ5VGh3jvW_iLM-382" style="edgeStyle=orthogonalEdgeStyle;rounded=0;orthogonalLoop=1;jettySize=auto;html=1;entryX=0.75;entryY=0;entryDx=0;entryDy=0;endArrow=none;endFill=0;" parent="FsEV9OsQ5VGh3jvW_iLM-378" source="FsEV9OsQ5VGh3jvW_iLM-383" target="FsEV9OsQ5VGh3jvW_iLM-379" edge="1">
          <mxGeometry relative="1" as="geometry" />
        </mxCell>
        <mxCell id="FsEV9OsQ5VGh3jvW_iLM-383" value="A" style="ellipse;whiteSpace=wrap;html=1;aspect=fixed;fontSize=16;" parent="FsEV9OsQ5VGh3jvW_iLM-378" vertex="1">
          <mxGeometry x="60" width="34" height="34" as="geometry" />
        </mxCell>
        <mxCell id="FsEV9OsQ5VGh3jvW_iLM-384" value="" style="group" parent="WIyWlLk6GJQsqaUBKTNV-1" vertex="1" connectable="0">
          <mxGeometry x="363.5" y="2126" width="103" height="122" as="geometry" />
        </mxCell>
        <mxCell id="FsEV9OsQ5VGh3jvW_iLM-385" value="TimesOfShiftsDAO" style="swimlane;fontStyle=0;childLayout=stackLayout;horizontal=1;startSize=26;fillColor=none;horizontalStack=0;resizeParent=1;resizeParentMax=0;resizeLast=0;collapsible=1;marginBottom=0;whiteSpace=wrap;html=1;" parent="FsEV9OsQ5VGh3jvW_iLM-384" vertex="1">
          <mxGeometry y="70" width="103" height="52" as="geometry" />
        </mxCell>
        <mxCell id="FsEV9OsQ5VGh3jvW_iLM-386" style="rounded=0;orthogonalLoop=1;jettySize=auto;html=1;entryX=0.25;entryY=0;entryDx=0;entryDy=0;endArrow=block;endFill=0;" parent="FsEV9OsQ5VGh3jvW_iLM-384" source="FsEV9OsQ5VGh3jvW_iLM-387" target="FsEV9OsQ5VGh3jvW_iLM-385" edge="1">
          <mxGeometry relative="1" as="geometry" />
        </mxCell>
        <mxCell id="FsEV9OsQ5VGh3jvW_iLM-387" value="B" style="ellipse;whiteSpace=wrap;html=1;aspect=fixed;fontSize=16;" parent="FsEV9OsQ5VGh3jvW_iLM-384" vertex="1">
          <mxGeometry x="8" width="34" height="34" as="geometry" />
        </mxCell>
        <mxCell id="FsEV9OsQ5VGh3jvW_iLM-388" style="edgeStyle=orthogonalEdgeStyle;rounded=0;orthogonalLoop=1;jettySize=auto;html=1;entryX=0.75;entryY=0;entryDx=0;entryDy=0;endArrow=none;endFill=0;" parent="FsEV9OsQ5VGh3jvW_iLM-384" source="FsEV9OsQ5VGh3jvW_iLM-389" target="FsEV9OsQ5VGh3jvW_iLM-385" edge="1">
          <mxGeometry relative="1" as="geometry" />
        </mxCell>
        <mxCell id="FsEV9OsQ5VGh3jvW_iLM-389" value="A" style="ellipse;whiteSpace=wrap;html=1;aspect=fixed;fontSize=16;" parent="FsEV9OsQ5VGh3jvW_iLM-384" vertex="1">
          <mxGeometry x="60" width="34" height="34" as="geometry" />
        </mxCell>
        <mxCell id="FsEV9OsQ5VGh3jvW_iLM-398" style="edgeStyle=orthogonalEdgeStyle;rounded=0;orthogonalLoop=1;jettySize=auto;html=1;exitX=0.5;exitY=1;exitDx=0;exitDy=0;entryX=0.5;entryY=0;entryDx=0;entryDy=0;endArrow=none;endFill=0;startArrow=diamondThin;startFill=0;" parent="WIyWlLk6GJQsqaUBKTNV-1" source="FsEV9OsQ5VGh3jvW_iLM-307" target="FsEV9OsQ5VGh3jvW_iLM-368" edge="1">
          <mxGeometry relative="1" as="geometry">
            <Array as="points">
              <mxPoint x="219.5" y="1966" />
              <mxPoint x="98.5" y="1966" />
            </Array>
          </mxGeometry>
        </mxCell>
        <mxCell id="FsEV9OsQ5VGh3jvW_iLM-399" style="edgeStyle=orthogonalEdgeStyle;rounded=0;orthogonalLoop=1;jettySize=auto;html=1;exitX=0.5;exitY=1;exitDx=0;exitDy=0;entryX=0.5;entryY=0;entryDx=0;entryDy=0;endArrow=none;endFill=0;startArrow=diamondThin;startFill=0;" parent="WIyWlLk6GJQsqaUBKTNV-1" source="FsEV9OsQ5VGh3jvW_iLM-307" target="FsEV9OsQ5VGh3jvW_iLM-373" edge="1">
          <mxGeometry relative="1" as="geometry">
            <Array as="points">
              <mxPoint x="219.5" y="1966" />
              <mxPoint x="231.5" y="1966" />
              <mxPoint x="231.5" y="1995" />
            </Array>
          </mxGeometry>
        </mxCell>
        <mxCell id="FsEV9OsQ5VGh3jvW_iLM-400" value="contains" style="edgeStyle=orthogonalEdgeStyle;rounded=0;orthogonalLoop=1;jettySize=auto;html=1;exitX=0.5;exitY=1;exitDx=0;exitDy=0;entryX=0.5;entryY=0;entryDx=0;entryDy=0;endArrow=none;endFill=0;startArrow=diamondThin;startFill=0;" parent="WIyWlLk6GJQsqaUBKTNV-1" source="FsEV9OsQ5VGh3jvW_iLM-307" edge="1">
          <mxGeometry x="-0.7547" relative="1" as="geometry">
            <Array as="points">
              <mxPoint x="219.5" y="1966" />
              <mxPoint x="400.5" y="1966" />
            </Array>
            <mxPoint as="offset" />
            <mxPoint x="400" y="2051" as="targetPoint" />
          </mxGeometry>
        </mxCell>
        <mxCell id="FsEV9OsQ5VGh3jvW_iLM-401" value="B" style="ellipse;whiteSpace=wrap;html=1;aspect=fixed;fontSize=16;" parent="WIyWlLk6GJQsqaUBKTNV-1" vertex="1">
          <mxGeometry x="-424" y="1346" width="34" height="34" as="geometry" />
        </mxCell>
        <mxCell id="2IBe6KhLyTTvs5EpKumv-187" style="edgeStyle=orthogonalEdgeStyle;rounded=0;orthogonalLoop=1;jettySize=auto;html=1;entryX=0.75;entryY=0;entryDx=0;entryDy=0;" edge="1" parent="WIyWlLk6GJQsqaUBKTNV-1" source="2IBe6KhLyTTvs5EpKumv-185" target="W6Eq-dex9__hlxGE6Bs_-211">
          <mxGeometry relative="1" as="geometry" />
        </mxCell>
        <mxCell id="2IBe6KhLyTTvs5EpKumv-185" value="B" style="ellipse;whiteSpace=wrap;html=1;aspect=fixed;fontSize=16;" vertex="1" parent="WIyWlLk6GJQsqaUBKTNV-1">
          <mxGeometry x="194" y="1327.06" width="34" height="34" as="geometry" />
        </mxCell>
        <mxCell id="2IBe6KhLyTTvs5EpKumv-189" style="edgeStyle=orthogonalEdgeStyle;rounded=0;orthogonalLoop=1;jettySize=auto;html=1;entryX=0.75;entryY=0;entryDx=0;entryDy=0;" edge="1" parent="WIyWlLk6GJQsqaUBKTNV-1" source="2IBe6KhLyTTvs5EpKumv-188" target="W6Eq-dex9__hlxGE6Bs_-239">
          <mxGeometry relative="1" as="geometry" />
        </mxCell>
        <mxCell id="2IBe6KhLyTTvs5EpKumv-188" value="B" style="ellipse;whiteSpace=wrap;html=1;aspect=fixed;fontSize=16;" vertex="1" parent="WIyWlLk6GJQsqaUBKTNV-1">
          <mxGeometry x="-316.5" y="1448.5" width="34" height="34" as="geometry" />
        </mxCell>
        <mxCell id="2IBe6KhLyTTvs5EpKumv-192" style="edgeStyle=orthogonalEdgeStyle;rounded=0;orthogonalLoop=1;jettySize=auto;html=1;entryX=0.75;entryY=0;entryDx=0;entryDy=0;" edge="1" parent="WIyWlLk6GJQsqaUBKTNV-1" source="2IBe6KhLyTTvs5EpKumv-190" target="W6Eq-dex9__hlxGE6Bs_-231">
          <mxGeometry relative="1" as="geometry">
            <Array as="points">
              <mxPoint x="-282" y="1590" />
            </Array>
          </mxGeometry>
        </mxCell>
        <mxCell id="2IBe6KhLyTTvs5EpKumv-190" value="B" style="ellipse;whiteSpace=wrap;html=1;aspect=fixed;fontSize=16;" vertex="1" parent="WIyWlLk6GJQsqaUBKTNV-1">
          <mxGeometry x="-272.5" y="1560" width="34" height="34" as="geometry" />
        </mxCell>
        <mxCell id="2IBe6KhLyTTvs5EpKumv-196" style="edgeStyle=orthogonalEdgeStyle;rounded=0;orthogonalLoop=1;jettySize=auto;html=1;entryX=0.25;entryY=0;entryDx=0;entryDy=0;" edge="1" parent="WIyWlLk6GJQsqaUBKTNV-1" source="2IBe6KhLyTTvs5EpKumv-193" target="W6Eq-dex9__hlxGE6Bs_-231">
          <mxGeometry relative="1" as="geometry">
            <Array as="points">
              <mxPoint x="-396" y="1584" />
            </Array>
          </mxGeometry>
        </mxCell>
        <mxCell id="2IBe6KhLyTTvs5EpKumv-193" value="A" style="ellipse;whiteSpace=wrap;html=1;aspect=fixed;fontSize=18;" vertex="1" parent="WIyWlLk6GJQsqaUBKTNV-1">
          <mxGeometry x="-497.75" y="1567.75" width="31.75" height="31.75" as="geometry" />
        </mxCell>
        <mxCell id="2IBe6KhLyTTvs5EpKumv-198" style="edgeStyle=orthogonalEdgeStyle;rounded=0;orthogonalLoop=1;jettySize=auto;html=1;" edge="1" parent="WIyWlLk6GJQsqaUBKTNV-1" source="2IBe6KhLyTTvs5EpKumv-197" target="W6Eq-dex9__hlxGE6Bs_-225">
          <mxGeometry relative="1" as="geometry">
            <Array as="points">
              <mxPoint x="-73" y="1520" />
              <mxPoint x="-125" y="1520" />
            </Array>
          </mxGeometry>
        </mxCell>
        <mxCell id="2IBe6KhLyTTvs5EpKumv-197" value="B" style="ellipse;whiteSpace=wrap;html=1;aspect=fixed;fontSize=16;" vertex="1" parent="WIyWlLk6GJQsqaUBKTNV-1">
          <mxGeometry x="-90.25" y="1466.13" width="34" height="34" as="geometry" />
        </mxCell>
        <mxCell id="2IBe6KhLyTTvs5EpKumv-201" style="edgeStyle=orthogonalEdgeStyle;rounded=0;orthogonalLoop=1;jettySize=auto;html=1;" edge="1" parent="WIyWlLk6GJQsqaUBKTNV-1" source="2IBe6KhLyTTvs5EpKumv-199" target="W6Eq-dex9__hlxGE6Bs_-237">
          <mxGeometry relative="1" as="geometry" />
        </mxCell>
        <mxCell id="2IBe6KhLyTTvs5EpKumv-199" value="B" style="ellipse;whiteSpace=wrap;html=1;aspect=fixed;fontSize=16;" vertex="1" parent="WIyWlLk6GJQsqaUBKTNV-1">
          <mxGeometry x="-50.5" y="1565.5" width="34" height="34" as="geometry" />
        </mxCell>
        <mxCell id="2IBe6KhLyTTvs5EpKumv-204" style="edgeStyle=orthogonalEdgeStyle;rounded=0;orthogonalLoop=1;jettySize=auto;html=1;entryX=0.319;entryY=0.007;entryDx=0;entryDy=0;entryPerimeter=0;" edge="1" parent="WIyWlLk6GJQsqaUBKTNV-1" source="2IBe6KhLyTTvs5EpKumv-202" target="W6Eq-dex9__hlxGE6Bs_-230">
          <mxGeometry relative="1" as="geometry">
            <Array as="points">
              <mxPoint x="95" y="1520" />
              <mxPoint x="95" y="1520" />
            </Array>
          </mxGeometry>
        </mxCell>
        <mxCell id="2IBe6KhLyTTvs5EpKumv-202" value="B" style="ellipse;whiteSpace=wrap;html=1;aspect=fixed;fontSize=16;" vertex="1" parent="WIyWlLk6GJQsqaUBKTNV-1">
          <mxGeometry x="65.18" y="1478.5" width="34" height="34" as="geometry" />
        </mxCell>
        <mxCell id="2IBe6KhLyTTvs5EpKumv-206" style="edgeStyle=orthogonalEdgeStyle;rounded=0;orthogonalLoop=1;jettySize=auto;html=1;" edge="1" parent="WIyWlLk6GJQsqaUBKTNV-1" source="2IBe6KhLyTTvs5EpKumv-205" target="W6Eq-dex9__hlxGE6Bs_-213">
          <mxGeometry relative="1" as="geometry" />
        </mxCell>
        <mxCell id="2IBe6KhLyTTvs5EpKumv-205" value="B" style="ellipse;whiteSpace=wrap;html=1;aspect=fixed;fontSize=16;" vertex="1" parent="WIyWlLk6GJQsqaUBKTNV-1">
          <mxGeometry x="363.5" y="1315.2" width="34" height="34" as="geometry" />
        </mxCell>
        <mxCell id="2IBe6KhLyTTvs5EpKumv-208" style="edgeStyle=orthogonalEdgeStyle;rounded=0;orthogonalLoop=1;jettySize=auto;html=1;" edge="1" parent="WIyWlLk6GJQsqaUBKTNV-1" source="2IBe6KhLyTTvs5EpKumv-207" target="W6Eq-dex9__hlxGE6Bs_-222">
          <mxGeometry relative="1" as="geometry">
            <Array as="points">
              <mxPoint x="753" y="1440" />
              <mxPoint x="579" y="1440" />
            </Array>
          </mxGeometry>
        </mxCell>
        <mxCell id="2IBe6KhLyTTvs5EpKumv-207" value="B" style="ellipse;whiteSpace=wrap;html=1;aspect=fixed;fontSize=16;" vertex="1" parent="WIyWlLk6GJQsqaUBKTNV-1">
          <mxGeometry x="736" y="1398" width="34" height="34" as="geometry" />
        </mxCell>
        <mxCell id="2IBe6KhLyTTvs5EpKumv-211" style="edgeStyle=orthogonalEdgeStyle;rounded=0;orthogonalLoop=1;jettySize=auto;html=1;" edge="1" parent="WIyWlLk6GJQsqaUBKTNV-1" source="2IBe6KhLyTTvs5EpKumv-209" target="W6Eq-dex9__hlxGE6Bs_-216">
          <mxGeometry relative="1" as="geometry">
            <Array as="points">
              <mxPoint x="449" y="1580" />
              <mxPoint x="390" y="1580" />
            </Array>
          </mxGeometry>
        </mxCell>
        <mxCell id="2IBe6KhLyTTvs5EpKumv-209" value="B" style="ellipse;whiteSpace=wrap;html=1;aspect=fixed;fontSize=16;" vertex="1" parent="WIyWlLk6GJQsqaUBKTNV-1">
          <mxGeometry x="432.5" y="1533.75" width="34" height="34" as="geometry" />
        </mxCell>
        <mxCell id="2IBe6KhLyTTvs5EpKumv-213" style="edgeStyle=orthogonalEdgeStyle;rounded=0;orthogonalLoop=1;jettySize=auto;html=1;" edge="1" parent="WIyWlLk6GJQsqaUBKTNV-1" source="2IBe6KhLyTTvs5EpKumv-212" target="W6Eq-dex9__hlxGE6Bs_-219">
          <mxGeometry relative="1" as="geometry">
            <Array as="points">
              <mxPoint x="613" y="1710" />
              <mxPoint x="613" y="1710" />
            </Array>
          </mxGeometry>
        </mxCell>
        <mxCell id="2IBe6KhLyTTvs5EpKumv-212" value="B" style="ellipse;whiteSpace=wrap;html=1;aspect=fixed;fontSize=16;" vertex="1" parent="WIyWlLk6GJQsqaUBKTNV-1">
          <mxGeometry x="596" y="1642" width="34" height="34" as="geometry" />
        </mxCell>
        <mxCell id="2IBe6KhLyTTvs5EpKumv-222" value="" style="edgeStyle=orthogonalEdgeStyle;rounded=0;orthogonalLoop=1;jettySize=auto;html=1;exitX=0.5;exitY=1;exitDx=0;exitDy=0;entryX=0.961;entryY=0.048;entryDx=0;entryDy=0;endArrow=none;endFill=0;startArrow=diamondThin;startFill=1;entryPerimeter=0;" edge="1" parent="WIyWlLk6GJQsqaUBKTNV-1" source="128" target="2IBe6KhLyTTvs5EpKumv-214">
          <mxGeometry relative="1" as="geometry">
            <Array as="points">
              <mxPoint x="660" y="50" />
              <mxPoint x="254" y="50" />
            </Array>
            <mxPoint x="660" y="40" as="sourcePoint" />
            <mxPoint x="-230" y="40" as="targetPoint" />
          </mxGeometry>
        </mxCell>
        <mxCell id="2IBe6KhLyTTvs5EpKumv-214" value="1235: Truck" style="swimlane;fontStyle=0;align=center;verticalAlign=top;childLayout=stackLayout;horizontal=1;startSize=26;horizontalStack=0;resizeParent=1;resizeLast=0;collapsible=1;marginBottom=0;rounded=0;shadow=0;strokeWidth=1;" vertex="1" parent="WIyWlLk6GJQsqaUBKTNV-1">
          <mxGeometry x="90.75" y="53" width="170" height="200" as="geometry">
            <mxRectangle x="130" y="380" width="160" height="26" as="alternateBounds" />
          </mxGeometry>
        </mxCell>
        <mxCell id="2IBe6KhLyTTvs5EpKumv-215" value="Id: 1235" style="text;align=left;verticalAlign=top;spacingLeft=4;spacingRight=4;overflow=hidden;rotatable=0;points=[[0,0.5],[1,0.5]];portConstraint=eastwest;" vertex="1" parent="2IBe6KhLyTTvs5EpKumv-214">
          <mxGeometry y="26" width="170" height="24" as="geometry" />
        </mxCell>
        <mxCell id="2IBe6KhLyTTvs5EpKumv-216" value="type: refrigeration" style="text;align=left;verticalAlign=top;spacingLeft=4;spacingRight=4;overflow=hidden;rotatable=0;points=[[0,0.5],[1,0.5]];portConstraint=eastwest;" vertex="1" parent="2IBe6KhLyTTvs5EpKumv-214">
          <mxGeometry y="50" width="170" height="24" as="geometry" />
        </mxCell>
        <mxCell id="2IBe6KhLyTTvs5EpKumv-217" value="model: Renault" style="text;align=left;verticalAlign=top;spacingLeft=4;spacingRight=4;overflow=hidden;rotatable=0;points=[[0,0.5],[1,0.5]];portConstraint=eastwest;" vertex="1" parent="2IBe6KhLyTTvs5EpKumv-214">
          <mxGeometry y="74" width="170" height="26" as="geometry" />
        </mxCell>
        <mxCell id="2IBe6KhLyTTvs5EpKumv-218" value="netWeight: 2500" style="text;align=left;verticalAlign=top;spacingLeft=4;spacingRight=4;overflow=hidden;rotatable=0;points=[[0,0.5],[1,0.5]];portConstraint=eastwest;" vertex="1" parent="2IBe6KhLyTTvs5EpKumv-214">
          <mxGeometry y="100" width="170" height="24" as="geometry" />
        </mxCell>
        <mxCell id="2IBe6KhLyTTvs5EpKumv-219" value="maxWeight: 5000" style="text;align=left;verticalAlign=top;spacingLeft=4;spacingRight=4;overflow=hidden;rotatable=0;points=[[0,0.5],[1,0.5]];portConstraint=eastwest;" vertex="1" parent="2IBe6KhLyTTvs5EpKumv-214">
          <mxGeometry y="124" width="170" height="24" as="geometry" />
        </mxCell>
        <mxCell id="2IBe6KhLyTTvs5EpKumv-220" value="status: AVAILABLE" style="text;align=left;verticalAlign=top;spacingLeft=4;spacingRight=4;overflow=hidden;rotatable=0;points=[[0,0.5],[1,0.5]];portConstraint=eastwest;" vertex="1" parent="2IBe6KhLyTTvs5EpKumv-214">
          <mxGeometry y="148" width="170" height="24" as="geometry" />
        </mxCell>
        <mxCell id="2IBe6KhLyTTvs5EpKumv-221" value="deliveryDates: [2000/01/01]" style="text;align=left;verticalAlign=top;spacingLeft=4;spacingRight=4;overflow=hidden;rotatable=0;points=[[0,0.5],[1,0.5]];portConstraint=eastwest;" vertex="1" parent="2IBe6KhLyTTvs5EpKumv-214">
          <mxGeometry y="172" width="170" height="24" as="geometry" />
        </mxCell>
      </root>
    </mxGraphModel>
  </diagram>
</mxfile>
